<?xml version="1.0" standalone="no"?>
<!DOCTYPE svg PUBLIC "-//W3C//DTD SVG 20010904//EN"
 "http://www.w3.org/TR/2001/REC-SVG-20010904/DTD/svg10.dtd">
<svg version="1.0" xmlns="http://www.w3.org/2000/svg"
 width="3184.000000pt" height="3184.000000pt" viewBox="0 0 3184.000000 3184.000000"
 preserveAspectRatio="xMidYMid meet">
<metadata>
Created by potrace 1.14, written by Peter Selinger 2001-2017
</metadata>
<g transform="translate(0.000000,3184.000000) scale(0.100000,-0.100000)"
fill="#000000" stroke="none">
<path d="M16099 31726 c-2 -2 -30 -6 -62 -10 -349 -36 -664 -163 -947 -378
-100 -77 -273 -259 -340 -359 -167 -251 -234 -491 -255 -914 -13 -271 -43
-393 -163 -665 -46 -106 -207 -438 -216 -448 -2 -1 -16 -4 -32 -6 -16 -2 -51
-7 -79 -11 -27 -4 -61 -8 -75 -10 -100 -14 -127 -18 -142 -21 -9 -1 -38 -6
-65 -10 -26 -3 -57 -8 -68 -10 -11 -3 -36 -7 -55 -10 -19 -3 -69 -11 -111 -19
-42 -8 -98 -17 -125 -21 -27 -3 -52 -8 -55 -10 -4 -2 -24 -6 -45 -10 -113 -17
-678 -139 -695 -150 -5 -3 -21 15 -37 40 -105 176 -309 471 -367 532 -5 6 -37
43 -70 82 -107 127 -315 324 -471 447 -348 274 -818 499 -1217 580 -10 2 -26
6 -35 9 -9 3 -30 8 -47 11 -112 19 -146 25 -194 30 -30 4 -63 9 -75 11 -110
22 -627 22 -742 0 -10 -2 -41 -7 -69 -10 -27 -4 -66 -9 -85 -12 -48 -7 -261
-51 -335 -69 -33 -9 -69 -17 -79 -20 -10 -2 -33 -9 -50 -14 -17 -5 -85 -26
-151 -47 -157 -48 -350 -119 -530 -194 -150 -62 -187 -78 -313 -136 -40 -19
-75 -34 -78 -34 -2 0 -240 -116 -527 -259 -287 -142 -553 -273 -592 -291 -182
-85 -416 -190 -475 -215 -36 -15 -78 -33 -95 -40 -16 -7 -97 -41 -180 -75
-484 -201 -700 -331 -920 -554 -193 -195 -329 -452 -361 -681 -3 -27 -8 -59
-11 -70 -2 -11 -4 -66 -4 -121 -2 -294 121 -592 333 -807 91 -92 161 -147 253
-198 33 -18 62 -35 65 -38 3 -4 10 -7 15 -8 6 -1 56 -18 113 -38 106 -37 121
-42 185 -51 21 -3 46 -7 55 -9 9 -2 21 -4 25 -4 4 -1 15 -18 24 -38 17 -42 43
-100 80 -183 52 -113 193 -432 193 -437 0 -2 11 -28 24 -56 30 -63 176 -407
176 -412 0 -3 11 -28 24 -57 51 -116 77 -72 -222 -374 -226 -227 -392 -401
-475 -498 -10 -11 -37 -41 -60 -67 -23 -25 -64 -71 -92 -104 -27 -32 -55 -63
-61 -69 -28 -29 -338 -404 -406 -492 -43 -54 -86 -110 -97 -124 -25 -31 -221
-291 -239 -317 -7 -10 -55 -76 -106 -148 -51 -71 -150 -215 -219 -320 -70
-104 -131 -195 -137 -202 -5 -7 -10 -14 -10 -17 0 -2 -17 -31 -38 -63 -21 -32
-59 -92 -84 -133 -25 -41 -75 -122 -110 -180 -35 -58 -78 -130 -95 -160 -17
-30 -70 -125 -118 -210 -270 -476 -541 -1039 -757 -1570 -43 -107 -83 -204
-88 -215 -5 -11 -30 -78 -56 -150 -26 -71 -53 -143 -60 -160 -36 -85 -235
-703 -309 -960 -33 -113 -116 -424 -129 -485 -3 -14 -17 -72 -31 -130 -28
-115 -61 -260 -69 -300 -2 -14 -20 -104 -40 -200 -19 -96 -39 -202 -45 -235
-6 -33 -13 -69 -15 -80 -2 -11 -7 -40 -11 -65 -4 -25 -9 -52 -10 -61 -2 -9 -6
-40 -10 -70 -4 -30 -8 -56 -10 -59 -2 -3 -9 -44 -15 -90 -7 -47 -14 -94 -15
-105 -2 -11 -6 -42 -10 -70 -3 -27 -8 -61 -10 -75 -2 -14 -6 -50 -10 -80 -3
-30 -8 -66 -10 -80 -3 -14 -8 -52 -11 -85 -9 -80 -9 -87 -18 -180 -4 -44 -9
-91 -12 -105 -2 -14 -6 -61 -9 -105 -4 -44 -8 -96 -10 -115 -2 -20 -7 -83 -10
-140 -4 -58 -8 -123 -10 -145 -26 -308 -26 -1348 0 -1705 1 -25 6 -90 9 -145
7 -98 9 -133 21 -265 15 -175 24 -263 30 -300 2 -14 6 -52 10 -85 10 -104 16
-147 31 -255 9 -58 17 -118 19 -135 3 -36 43 -300 50 -335 3 -14 7 -38 10 -55
6 -39 13 -77 26 -145 6 -30 12 -68 15 -85 9 -56 55 -279 95 -460 197 -891 496
-1802 872 -2655 l86 -195 4 -720 c2 -396 6 -731 10 -745 4 -13 9 -42 12 -65 9
-59 53 -219 82 -295 88 -228 233 -447 408 -615 245 -236 565 -392 910 -445 39
-6 135 -14 214 -17 87 -3 149 -10 156 -17 6 -6 30 -37 54 -69 38 -50 42 -59
30 -74 -8 -9 -9 -14 -3 -10 7 4 -4 -37 -23 -91 -20 -53 -35 -103 -36 -110 0
-7 -7 -10 -14 -8 -10 4 -11 1 -4 -11 6 -12 5 -26 -4 -44 -8 -15 -11 -30 -7
-34 4 -5 1 -5 -6 -1 -8 5 -13 3 -11 -5 4 -32 -1 -50 -13 -43 -8 5 -9 2 -5 -9
3 -9 -8 -54 -24 -99 -17 -46 -32 -91 -34 -100 -2 -9 -8 -25 -14 -36 -6 -11 -7
-22 -4 -26 3 -3 1 -6 -5 -6 -6 0 -9 -7 -6 -15 4 -8 2 -15 -3 -15 -5 0 -10 -11
-11 -24 -1 -13 -10 -44 -21 -69 -11 -25 -16 -48 -13 -52 4 -4 -2 -5 -13 -3
-11 1 -23 7 -26 11 -3 5 -9 2 -12 -6 -3 -9 1 -14 11 -13 19 1 22 -4 22 -35 0
-18 -4 -20 -27 -15 -27 5 -27 5 -5 -6 13 -7 21 -17 17 -26 -3 -7 -5 -18 -5
-23 0 -4 -8 -5 -17 -2 -16 6 -16 5 -5 -10 8 -9 10 -22 6 -29 -5 -7 -9 -19 -11
-27 -1 -8 -5 -17 -10 -20 -5 -3 -8 -13 -8 -21 1 -8 -4 -29 -11 -47 -7 -17 -10
-34 -6 -37 3 -3 0 -6 -7 -6 -8 0 -11 7 -6 18 5 13 4 14 -6 5 -9 -9 -9 -16 -1
-26 9 -10 9 -16 0 -25 -7 -7 -9 -12 -5 -12 4 0 1 -13 -7 -29 -9 -16 -12 -31
-9 -35 4 -3 -2 -6 -13 -6 -13 0 -15 -3 -7 -8 13 -8 7 -52 -7 -52 -5 0 -6 8 -3
19 6 22 -12 37 -23 20 -5 -8 -3 -9 5 -4 9 5 12 1 10 -11 -2 -11 0 -24 4 -30 9
-16 -12 -74 -26 -71 -7 1 -18 9 -25 17 -11 13 -11 11 -2 -7 6 -13 14 -22 18
-22 22 4 24 -3 4 -17 -12 -8 -22 -20 -22 -26 0 -7 7 -3 15 8 8 10 15 14 15 7
0 -6 -4 -14 -9 -17 -4 -3 -12 -20 -16 -38 -4 -18 -9 -35 -10 -38 -1 -3 -5 -12
-8 -20 -3 -8 -10 -31 -15 -50 -6 -25 -14 -35 -28 -35 -21 0 -32 -31 -16 -47 6
-6 8 0 5 16 -4 21 -2 25 11 20 12 -5 14 -10 6 -19 -5 -6 -7 -14 -4 -17 3 -4
-2 -20 -10 -37 -9 -16 -18 -38 -19 -48 -2 -10 -7 -25 -10 -33 -17 -44 -41
-126 -39 -132 1 -5 -2 -8 -6 -8 -4 0 -9 -9 -10 -20 -4 -47 -6 -51 -20 -45 -11
4 -12 2 -4 -8 7 -8 7 -18 2 -27 -6 -8 -10 -25 -10 -37 0 -13 -4 -23 -8 -23 -4
0 -9 -11 -10 -26 -1 -14 -6 -33 -12 -43 -7 -14 -4 -23 13 -38 12 -11 30 -23
40 -26 12 -5 17 -15 15 -36 -2 -30 -22 -36 -38 -11 -5 8 -7 2 -6 -16 1 -16 5
-34 9 -40 4 -7 0 -17 -8 -24 -11 -9 -14 -8 -14 9 -1 12 -1 30 -2 41 0 22 -19
26 -37 8 -9 -9 -12 -9 -12 -1 0 7 4 15 10 18 16 10 12 38 -5 32 -8 -4 -17 -2
-20 3 -4 6 2 10 11 10 10 0 15 3 11 6 -3 4 -14 4 -23 0 -13 -5 -14 -9 -4 -21
7 -9 8 -15 2 -15 -5 0 -13 -8 -16 -17 -5 -13 0 -11 18 6 41 39 30 8 -14 -39
-22 -23 -32 -39 -24 -36 10 4 14 1 12 -6 -3 -7 -13 -13 -24 -13 -14 0 -19 -7
-18 -28 1 -16 -3 -26 -10 -24 -6 2 -10 12 -8 22 3 17 2 17 -13 1 -9 -9 -22
-16 -28 -16 -7 0 3 14 21 30 32 29 46 54 17 30 -8 -7 -15 -8 -15 -2 0 13 25
33 33 26 3 -3 15 0 27 6 12 6 19 14 16 17 -3 3 -13 0 -21 -7 -12 -10 -19 -10
-27 -2 -14 14 -38 16 -38 2 0 -5 8 -7 17 -3 17 6 16 5 0 -15 -11 -11 -16 -25
-13 -30 3 -5 -5 -18 -19 -28 l-24 -18 30 -18 c17 -10 27 -23 24 -28 -3 -6 -15
-1 -28 10 -23 22 -44 21 -38 -1 10 -35 6 -55 -12 -72 -11 -9 -16 -17 -10 -17
5 0 18 9 28 20 10 11 14 20 9 20 -5 0 -3 4 5 9 12 8 12 12 -3 26 -9 10 -14 20
-11 23 3 3 15 -4 27 -15 l21 -21 -24 -34 c-13 -18 -28 -36 -34 -40 -14 -11 7
-10 23 1 8 4 13 12 12 17 -1 5 2 10 7 11 5 2 9 -6 9 -17 0 -11 -8 -23 -18 -26
-10 -3 -16 -9 -14 -13 6 -9 -33 -75 -41 -68 -3 3 3 19 13 36 19 32 13 54 -9
31 -9 -10 -9 -11 1 -6 6 4 12 3 12 -2 0 -16 -13 -22 -27 -11 -9 9 -13 8 -13 0
0 -6 5 -11 10 -11 6 0 10 -5 10 -11 0 -6 -8 -8 -19 -4 -10 3 -24 -1 -31 -10
-7 -9 -8 -15 -2 -15 6 0 12 6 15 13 8 22 38 -17 42 -56 2 -29 0 -35 -14 -30
-9 3 -7 -1 6 -11 l22 -16 -21 -40 c-12 -21 -25 -37 -30 -34 -4 3 -8 0 -8 -5 0
-6 4 -11 9 -11 6 0 2 -17 -9 -37 -10 -21 -28 -65 -40 -98 -12 -33 -26 -69 -30
-80 -10 -23 -58 -190 -72 -248 -32 -138 99 -225 336 -225 106 0 174 25 234 86
24 25 48 55 53 66 10 21 25 47 44 76 5 8 10 17 11 20 0 3 15 35 32 72 33 73
82 213 102 293 6 28 15 57 18 65 8 23 8 22 16 72 5 26 11 46 15 43 4 -2 4 19
0 48 -4 34 -3 57 5 66 8 11 8 13 -1 8 -14 -9 -20 0 -28 43 -6 36 10 87 35 108
9 8 10 11 1 6 -9 -4 -12 -2 -8 7 3 8 12 33 19 57 9 30 17 41 27 37 11 -4 12
-3 1 10 -13 16 -12 17 39 19 38 1 49 16 90 118 13 32 27 55 32 52 5 -3 6 1 3
9 -2 7 5 36 17 63 12 27 23 51 24 54 8 32 18 49 26 45 5 -3 6 0 4 8 -6 14 72
200 87 205 4 2 6 7 3 12 -3 4 2 21 10 36 8 16 15 35 15 42 0 7 5 10 12 6 7 -4
8 -3 4 4 -7 12 20 72 37 84 6 4 15 4 21 1 5 -3 6 -1 2 5 -4 6 -13 9 -20 6 -9
-3 -3 16 15 53 16 32 29 64 29 71 0 6 5 12 11 12 5 0 8 4 5 8 -9 14 44 113 56
106 8 -5 9 -1 5 10 -4 10 -4 23 0 29 4 7 8 14 8 17 3 20 18 50 26 50 5 0 8 3
8 8 -4 22 2 42 11 37 6 -3 7 1 4 9 -4 11 0 16 10 16 9 0 16 5 16 11 0 5 -4 8
-10 4 -5 -3 0 17 12 45 13 31 27 50 37 50 12 0 13 2 3 8 -9 7 -3 28 26 90 21
45 42 79 47 75 4 -5 6 -1 2 8 -3 9 0 25 8 35 7 11 14 24 16 29 11 37 25 65 32
65 4 0 6 3 3 8 -2 4 2 18 10 32 7 14 13 19 14 12 0 -8 5 -10 12 -6 8 5 9 2 5
-9 -4 -10 -2 -16 6 -14 7 1 11 -4 9 -11 -1 -6 2 -11 6 -10 10 4 102 -89 102
-103 0 -5 4 -7 10 -4 5 3 10 2 10 -3 0 -15 464 -473 670 -662 51 -47 102 -94
114 -105 12 -11 60 -54 106 -95 47 -41 97 -87 113 -102 15 -15 27 -25 27 -21
0 3 8 -3 18 -13 9 -11 43 -41 74 -68 32 -26 55 -52 52 -57 -3 -5 2 -6 10 -3
27 10 36 -33 39 -185 1 -83 6 -151 10 -151 4 0 3 -9 -3 -19 -6 -11 -6 -22 -1
-25 11 -7 9 -76 -3 -95 -6 -10 -6 -12 2 -7 8 5 12 -4 13 -28 1 -20 2 -44 2
-53 1 -10 -5 -17 -12 -15 -7 1 0 -13 14 -32 15 -19 25 -37 23 -40 -2 -2 1 -8
6 -13 5 -5 6 -2 1 5 -5 10 -1 13 15 10 15 -2 24 -11 27 -26 2 -16 -1 -21 -9
-16 -10 6 -11 4 -1 -7 17 -17 17 -71 1 -88 -7 -7 -8 -12 -3 -11 22 5 27 -1 15
-15 -10 -12 -10 -15 0 -15 9 0 10 -3 1 -13 -6 -8 -8 -17 -4 -21 4 -3 8 -14 9
-22 2 -11 -3 -14 -17 -11 -10 3 -22 1 -25 -4 -3 -5 -2 -9 3 -8 4 1 16 1 26 0
21 -1 23 -21 2 -21 -8 0 -12 -6 -9 -14 3 -8 0 -17 -7 -22 -8 -5 -10 -3 -4 6 5
8 4 11 -3 6 -6 -4 -9 -13 -6 -20 3 -7 -2 -21 -11 -30 -9 -9 -14 -16 -10 -16 3
0 0 -10 -7 -22 -7 -13 -13 -25 -13 -28 -4 -28 -31 -78 -38 -73 -6 3 -7 1 -3
-5 8 -14 -3 -84 -13 -78 -3 2 -7 -8 -8 -22 -3 -55 -8 -97 -13 -107 -7 -15 -5
-105 3 -140 4 -17 16 -36 26 -42 20 -12 185 -25 348 -27 51 -1 93 -4 93 -8 0
-5 -5 -8 -12 -8 -6 0 -1 -9 12 -20 13 -11 20 -23 16 -27 -3 -4 -20 6 -36 22
-29 27 -31 28 -47 12 -10 -9 -12 -17 -6 -17 6 0 13 6 16 13 2 6 8 9 12 5 4 -4
3 -14 -4 -22 -9 -11 -8 -15 5 -20 23 -9 31 -7 14 4 -8 5 -11 12 -7 16 7 7 37
-14 37 -26 0 -5 -6 -10 -13 -12 -9 -2 -7 -8 6 -21 18 -18 19 -18 13 0 -4 13 1
26 14 38 l20 18 -20 14 c-11 8 -18 18 -15 23 8 13 117 11 112 -3 -2 -6 -9 -13
-17 -15 -7 -3 -10 0 -7 5 3 5 0 10 -8 10 -11 0 -12 -4 -4 -13 15 -18 55 -11
51 9 -2 11 7 15 35 15 21 0 41 -5 45 -11 6 -9 8 -9 8 1 0 16 42 16 59 -1 11
-9 13 -9 7 1 -6 9 21 12 121 12 267 1 589 14 625 26 25 8 32 47 14 81 -23 46
-123 139 -214 200 -107 71 -350 194 -430 218 -12 3 -20 10 -17 15 3 5 0 12 -6
16 -8 4 -9 3 -5 -4 10 -17 -29 -15 -43 1 -6 8 -8 18 -4 23 4 5 2 4 -6 -3 -16
-13 -41 -7 -59 15 -6 9 -12 11 -12 5 0 -11 -50 3 -80 22 -8 5 -23 10 -32 11
-10 1 -19 2 -20 3 -2 2 -13 4 -26 7 -37 7 -62 23 -56 38 3 7 6 26 8 42 1 18 7
28 16 26 10 -2 11 0 2 10 -6 8 -7 19 -3 27 5 7 6 22 3 33 -6 23 19 21 26 -2 3
-7 0 -10 -7 -6 -7 4 -9 2 -5 -7 3 -8 0 -18 -6 -22 -9 -6 -9 -9 0 -15 7 -4 10
-15 7 -25 -4 -9 -11 -14 -15 -11 -10 6 -8 -62 2 -71 4 -4 11 -2 18 5 8 8 8 15
-2 27 -11 13 -10 15 8 12 23 -3 42 -17 25 -17 -6 0 -13 -9 -16 -20 -4 -17 -2
-18 15 -9 18 9 20 9 15 -4 -4 -11 -2 -14 9 -10 11 4 12 9 3 19 -6 8 -16 11
-23 7 -7 -4 -7 -1 1 7 9 9 16 10 25 3 15 -12 49 -13 43 -2 -3 4 7 17 22 28 20
15 22 19 8 14 -18 -6 -18 -5 -6 10 7 10 9 17 3 17 -6 0 -12 -6 -15 -12 -2 -7
-8 -10 -12 -6 -4 4 -2 15 6 25 12 14 12 16 0 8 -11 -6 -13 -4 -7 11 4 10 3 15
-1 10 -4 -4 -8 -22 -8 -39 0 -22 -6 -33 -18 -35 -9 -2 -17 2 -17 8 0 6 4 9 8
6 4 -2 9 5 9 16 2 19 1 19 -11 3 -11 -16 -13 -14 -13 14 0 24 3 28 14 20 12
-11 15 -7 12 17 0 4 5 11 13 16 9 7 8 8 -5 4 -12 -4 -17 -2 -15 5 2 7 19 13
36 14 30 3 32 1 18 -14 -11 -12 -12 -21 -5 -31 9 -13 10 -13 6 0 -4 17 9 33
36 43 10 4 16 11 13 16 -3 5 1 11 9 15 8 3 15 10 15 16 0 5 -9 2 -19 -7 -11
-9 -18 -20 -15 -25 3 -4 -2 -8 -11 -8 -9 0 -13 5 -9 11 4 7 -1 7 -16 -1 -12
-6 -27 -9 -35 -7 -17 7 -14 65 5 78 11 7 9 8 -10 5 -16 -2 -24 -9 -22 -20 2
-10 -2 -14 -12 -10 -8 3 -12 12 -10 19 6 15 59 37 68 28 3 -4 6 -1 6 6 0 7 5
9 12 5 6 -4 8 -3 4 4 -3 6 4 18 16 26 12 9 17 16 11 16 -6 0 -18 -7 -27 -15
-19 -20 -21 -19 -21 10 0 20 4 24 19 19 12 -4 16 -2 12 5 -4 6 -13 11 -21 11
-14 0 -15 24 0 37 4 4 5 3 2 -3 -6 -11 14 -26 37 -28 12 -1 24 -37 19 -56 -4
-13 -3 -13 5 0 6 8 8 18 6 22 -3 4 -1 8 4 8 18 0 20 -13 5 -39 l-15 -26 20 25
c11 14 24 21 29 17 4 -5 1 -13 -7 -18 -12 -8 -10 -9 6 -4 14 3 29 -3 48 -20
14 -13 29 -24 31 -25 3 0 32 -19 65 -42 42 -30 56 -44 47 -51 -8 -5 -5 -6 9
-3 13 4 28 -1 42 -14 11 -11 23 -20 25 -20 3 0 83 -53 178 -117 265 -178 665
-427 859 -535 25 -14 101 -56 170 -95 201 -113 825 -433 843 -433 3 0 62 -27
131 -60 70 -33 128 -60 131 -60 2 0 35 -14 72 -31 414 -190 1091 -439 1624
-599 174 -52 508 -146 549 -155 8 -2 62 -15 119 -30 58 -14 123 -30 145 -35
23 -4 111 -24 196 -43 85 -19 193 -43 240 -52 47 -10 90 -18 95 -20 6 -1 28
-5 50 -9 22 -4 60 -11 85 -16 25 -6 59 -12 75 -15 17 -3 84 -14 150 -25 66
-12 134 -23 150 -26 17 -3 75 -12 130 -20 55 -8 129 -18 165 -24 36 -5 85 -11
110 -14 25 -3 99 -12 165 -20 126 -16 178 -21 285 -31 36 -4 76 -8 90 -10 14
-2 68 -7 120 -11 52 -3 113 -8 135 -9 22 -2 87 -6 145 -10 58 -4 128 -8 155
-10 355 -23 1154 -23 1540 0 127 7 273 17 305 20 19 2 73 6 120 10 47 3 101 8
120 10 19 2 64 7 100 10 96 8 186 18 358 40 23 3 60 7 82 10 65 8 123 16 150
20 14 2 45 7 70 10 25 3 128 19 230 36 235 38 222 36 310 54 14 2 41 7 60 10
19 3 42 8 50 10 8 2 29 7 45 9 17 3 75 15 130 26 55 11 113 23 129 26 16 3 33
7 36 9 4 3 23 7 42 10 19 3 100 22 179 41 79 19 155 37 168 40 79 16 496 131
676 185 127 39 554 177 580 189 11 4 74 27 140 51 326 115 792 305 1100 449
44 21 121 56 170 80 178 83 601 299 718 366 32 19 60 34 62 34 6 0 367 210
495 287 346 209 701 447 1025 683 137 100 376 282 425 323 8 7 49 39 90 72
134 107 368 302 390 325 8 8 31 28 50 44 64 53 186 162 390 351 237 220 711
707 914 940 43 50 84 95 90 100 6 6 70 80 141 166 72 85 141 169 155 185 14
16 54 48 89 71 228 147 427 412 496 660 9 32 26 71 37 87 11 15 93 137 182
270 466 693 843 1376 1197 2169 49 109 89 201 89 203 0 3 9 24 19 47 127 280
470 1240 527 1476 2 9 22 79 44 156 57 199 179 679 204 805 3 14 23 114 45
222 23 109 44 215 47 235 3 21 7 45 9 53 3 8 7 33 10 55 4 22 8 47 10 55 3 8
7 33 10 55 4 22 13 81 21 130 18 106 19 115 34 220 18 126 18 127 25 185 4 30
9 62 10 70 1 8 6 47 10 85 4 39 8 77 10 85 2 9 6 47 10 85 3 39 8 81 10 95 3
24 10 93 21 225 3 33 7 80 9 104 2 25 7 97 10 160 4 64 8 135 10 158 26 325
26 1303 0 1628 -2 28 -7 97 -10 155 -4 58 -8 121 -10 140 -2 19 -6 73 -10 120
-3 47 -7 99 -9 115 -2 17 -7 64 -11 105 -4 41 -8 86 -10 100 -2 14 -6 48 -9
75 -14 123 -29 241 -41 326 -3 22 -7 58 -11 82 -3 23 -7 49 -9 57 -2 8 -6 38
-10 65 -3 28 -13 91 -21 140 -9 50 -17 99 -19 110 -9 66 -72 403 -91 489 -3
12 -7 32 -10 46 -13 74 -127 561 -149 640 -8 30 -37 136 -64 235 -78 287 -177
603 -283 905 -92 264 -254 685 -314 818 -13 29 -24 54 -24 57 0 2 -14 34 -31
72 -16 37 -34 77 -39 88 -5 11 -29 65 -54 120 -157 355 -358 749 -606 1190
-178 317 -423 706 -671 1065 -111 160 -138 198 -283 392 -75 101 -80 109 -188
247 -40 51 -91 116 -113 145 -44 57 -297 362 -340 410 -5 6 -44 49 -85 96 -41
47 -79 90 -85 96 -107 118 -164 181 -217 238 -54 58 -69 81 -88 140 -12 39
-31 88 -41 109 -18 35 -18 37 -2 38 41 1 205 41 270 66 23 8 47 12 54 8 7 -5
10 -4 6 2 -3 5 20 20 51 33 31 13 84 39 117 58 33 19 69 40 80 46 28 16 79 49
85 56 3 3 34 29 70 57 36 28 83 70 104 92 22 22 43 38 48 35 5 -3 8 -2 7 3 -4
15 13 43 22 37 5 -3 9 0 9 5 0 9 13 27 55 75 24 28 118 166 149 220 36 61 129
250 146 296 7 19 16 40 20 45 3 6 21 56 40 112 19 56 38 99 42 97 4 -3 5 2 2
10 -3 8 4 49 16 91 25 87 26 94 55 262 3 16 7 53 10 83 3 30 8 75 11 100 6 54
6 273 -1 350 -4 49 -17 157 -20 170 0 3 -4 28 -9 55 -14 91 -64 280 -95 359
-152 380 -446 658 -828 781 l-82 27 -99 116 c-150 176 -288 313 -488 482 -305
258 -750 500 -1207 656 -71 24 -138 46 -150 48 -12 3 -62 17 -112 31 -49 14
-101 27 -115 29 -14 2 -47 9 -75 15 -209 46 -469 79 -680 87 -137 5 -368 4
-435 -1 -30 -2 -91 -7 -135 -10 -44 -3 -93 -8 -110 -10 -65 -10 -112 -16 -145
-21 -191 -24 -572 -121 -725 -184 -11 -4 -36 -13 -55 -20 -19 -7 -54 -21 -77
-31 -24 -11 -45 -19 -47 -19 -21 0 -313 -146 -436 -218 -85 -50 -281 -179
-327 -216 -237 -189 -482 -430 -598 -590 -16 -23 -32 -43 -36 -46 -3 -3 -37
-50 -74 -105 -38 -55 -72 -104 -75 -108 -4 -5 -48 5 -96 21 -144 49 -502 158
-584 178 -71 17 -241 65 -265 74 -16 6 -32 11 -35 11 -3 -1 -73 15 -155 35
l-151 35 -58 127 c-88 192 -421 846 -523 1027 -49 88 -101 180 -115 205 -14
25 -62 105 -106 179 -45 74 -82 136 -82 138 0 2 -9 16 -19 31 -11 15 -56 83
-101 152 -45 69 -86 127 -91 128 -5 2 -9 8 -9 13 0 22 -181 242 -299 364 -332
342 -798 594 -1206 651 -27 3 -59 9 -70 11 -24 6 -391 14 -396 9z m-11985
-28260 c-3 -8 0 -17 5 -21 6 -3 9 -11 6 -16 -13 -20 7 -30 26 -13 10 9 19 12
19 6 0 -6 -4 -13 -10 -17 -5 -3 -7 -12 -3 -20 3 -10 -1 -15 -13 -15 -16 0 -17
2 -4 11 12 8 11 9 -6 4 -17 -4 -22 -1 -20 12 0 11 -5 17 -16 17 -10 -1 -18 2
-18 7 0 5 5 9 11 9 6 0 8 7 5 16 -7 17 0 34 14 34 5 0 7 -6 4 -14z m-33 -31
c-5 -5 -8 -17 -8 -25 0 -8 -2 -22 -4 -30 -2 -8 1 -14 7 -13 7 1 18 -11 27 -28
11 -23 16 -27 20 -15 4 9 2 16 -4 16 -6 0 -7 6 -3 13 4 6 4 9 -1 5 -11 -10
-38 29 -30 42 11 18 26 10 20 -10 -5 -14 -2 -20 9 -20 9 0 16 -5 16 -11 0 -5
4 -8 8 -5 4 2 9 -4 9 -15 1 -11 -3 -17 -8 -13 -6 3 -9 -2 -7 -12 2 -11 -2 -18
-9 -16 -7 1 -13 -2 -13 -7 0 -5 -8 -12 -18 -15 -10 -4 -29 -16 -41 -27 -12
-12 -25 -18 -29 -14 -3 3 -2 9 3 13 6 4 11 14 13 22 2 8 8 21 13 30 7 11 8 7
5 -13 -4 -24 -3 -27 9 -17 11 9 12 17 5 30 -15 27 -12 32 9 18 11 -7 17 -16
14 -22 -3 -5 -1 -6 5 -2 16 10 0 38 -33 60 -20 13 -23 21 -16 34 6 11 6 24 1
32 -6 10 -3 21 7 33 13 13 18 14 24 5 4 -7 4 -17 0 -23z m96 20 c0 -18 -19
-15 -25 3 -2 7 3 12 11 12 7 0 14 -7 14 -15z m-137 -65 c-6 -11 -16 -20 -23
-21 -9 0 -9 -2 1 -6 6 -2 10 -8 8 -12 -3 -4 -1 -13 3 -20 6 -10 10 -9 14 4 4
9 3 14 -1 11 -5 -3 -9 2 -9 10 0 13 2 13 14 1 14 -14 8 -47 -9 -47 -5 0 -7 -4
-3 -9 3 -5 -2 -17 -11 -25 -16 -16 -34 -13 -34 5 0 6 4 8 8 5 4 -2 14 -1 22 5
11 6 12 9 2 9 -7 0 -11 4 -8 8 11 19 -10 27 -26 10 -10 -10 -14 -18 -8 -18 5
0 7 -7 3 -16 -4 -12 -8 -13 -13 -3 -5 7 -7 2 -7 -14 1 -14 6 -23 11 -19 5 3 6
0 2 -6 -10 -17 -29 -15 -23 3 4 8 2 17 -4 20 -5 4 -1 18 10 34 19 26 19 29 3
44 -11 11 -12 17 -4 17 7 0 15 -7 18 -15 10 -24 33 2 28 30 -3 18 -1 23 10 19
8 -3 17 -1 21 5 11 19 16 12 5 -9z m-33 -85 c0 -8 -4 -12 -9 -9 -5 3 -6 10 -3
15 9 13 12 11 12 -6z m4 -51 c2 2 5 -7 5 -20 2 -18 -1 -22 -10 -15 -8 6 -17 6
-26 -1 -12 -8 -12 -9 3 -4 9 3 17 3 17 1 0 -13 -25 -55 -32 -55 -5 0 -4 9 2
20 9 16 8 19 -6 13 -13 -5 -15 -3 -9 7 5 9 4 11 -3 6 -26 -16 -32 -43 -14 -57
15 -12 15 -12 5 1 -8 10 -9 21 -3 30 10 16 12 12 12 -20 0 -41 -2 -43 -23 -24
-22 19 -22 19 -8 -3 11 -19 10 -26 -6 -57 -11 -20 -22 -36 -25 -36 -3 0 -6 20
-6 45 -1 25 1 45 6 45 4 0 15 18 25 39 11 25 28 44 46 52 24 9 28 16 23 33 -6
18 -5 19 8 9 8 -7 17 -11 19 -9z m3319 -94 c0 -5 -4 -10 -10 -10 -5 0 -10 5
-10 10 0 6 5 10 10 10 6 0 10 -4 10 -10z m32 -34 c4 3 8 0 8 -5 0 -6 -2 -11
-4 -11 -2 0 -12 -3 -22 -7 -11 -4 -15 -3 -10 5 3 6 1 14 -5 18 -8 4 -9 3 -5
-4 4 -7 2 -12 -3 -12 -6 0 -11 5 -11 10 0 6 -4 10 -10 10 -18 0 -10 -17 13
-28 12 -6 16 -11 10 -11 -7 -1 -13 -6 -13 -11 0 -6 10 -4 23 5 26 17 43 9 26
-12 -9 -10 -8 -17 1 -28 9 -10 9 -15 1 -15 -6 0 -11 5 -11 12 0 6 -6 3 -14 -8
-8 -11 -10 -21 -5 -25 5 -3 7 -12 4 -20 -3 -8 1 -23 9 -34 13 -17 18 -18 35
-7 31 18 39 14 13 -8 -22 -18 -25 -18 -48 -4 -13 9 -22 20 -19 24 3 5 0 12 -6
16 -7 4 -9 3 -5 -4 3 -6 2 -13 -4 -17 -5 -3 -10 -1 -10 6 0 8 -4 8 -15 -1 -8
-7 -15 -10 -15 -6 0 3 15 16 33 27 17 12 24 19 15 16 -22 -7 -31 19 -17 46 10
17 8 24 -11 39 -12 10 -18 18 -13 18 5 0 9 10 8 23 -3 35 3 38 37 17 17 -10
35 -17 40 -14z m-72 -206 c0 -5 -2 -10 -4 -10 -3 0 -8 5 -11 10 -3 6 -1 10 4
10 6 0 11 -4 11 -10z"/>
<path d="M3896 3121 c-3 -5 1 -11 9 -14 9 -4 12 -1 8 9 -6 16 -10 17 -17 5z"/>
<path d="M3890 3079 c0 -5 5 -7 10 -4 6 3 10 8 10 11 0 2 -4 4 -10 4 -5 0 -10
-5 -10 -11z"/>
<path d="M7331 3066 c-17 -19 -20 -26 -9 -32 7 -4 10 -3 5 1 -4 5 3 19 15 32
12 13 19 23 16 23 -2 0 -15 -11 -27 -24z"/>
<path d="M4735 5780 c-3 -5 -1 -10 4 -10 6 0 11 5 11 10 0 6 -2 10 -4 10 -3 0
-8 -4 -11 -10z"/>
<path d="M4695 5740 c3 -5 8 -10 11 -10 2 0 4 5 4 10 0 6 -5 10 -11 10 -5 0
-7 -4 -4 -10z"/>
<path d="M4746 5742 c-2 -4 4 -8 14 -8 10 0 16 4 14 8 -3 4 -9 8 -14 8 -5 0
-11 -4 -14 -8z"/>
<path d="M4730 5686 c0 -2 7 -7 16 -10 8 -3 12 -2 9 4 -6 10 -25 14 -25 6z"/>
<path d="M4770 5681 c0 -6 4 -13 10 -16 6 -3 7 1 4 9 -7 18 -14 21 -14 7z"/>
<path d="M4710 5666 c0 -2 7 -7 16 -10 8 -3 12 -2 9 4 -6 10 -25 14 -25 6z"/>
<path d="M4633 5645 c0 -8 4 -12 9 -9 5 3 6 10 3 15 -9 13 -12 11 -12 -6z"/>
<path d="M4750 5656 c0 -2 8 -10 18 -17 15 -13 16 -12 3 4 -13 16 -21 21 -21
13z"/>
<path d="M4720 5620 c-9 -6 -10 -10 -3 -10 6 0 15 5 18 10 8 12 4 12 -15 0z"/>
<path d="M4664 5598 c-4 -7 -3 -8 5 -4 6 4 20 2 29 -6 15 -12 16 -11 3 5 -16
20 -27 22 -37 5z"/>
<path d="M4546 5562 c-3 -5 1 -9 9 -9 8 0 12 4 9 9 -3 4 -7 8 -9 8 -2 0 -6 -4
-9 -8z"/>
<path d="M4579 5508 c-5 -18 -6 -38 -1 -34 7 8 12 36 6 36 -2 0 -4 -1 -5 -2z"/>
<path d="M4706 5498 c3 -4 9 -8 15 -8 5 0 9 4 9 8 0 5 -7 9 -15 9 -8 0 -12 -4
-9 -9z"/>
<path d="M4670 5475 c5 -7 8 -14 5 -17 -3 -2 2 -5 10 -5 10 0 12 4 5 12 -5 7
-8 14 -5 17 3 2 -2 5 -10 5 -10 0 -12 -4 -5 -12z"/>
<path d="M4533 5425 c0 -8 4 -12 9 -9 5 3 6 10 3 15 -9 13 -12 11 -12 -6z"/>
<path d="M4630 5418 c0 -4 4 -8 9 -8 6 0 12 4 15 8 3 5 -1 9 -9 9 -8 0 -15 -4
-15 -9z"/>
<path d="M4600 5406 c0 -2 8 -10 18 -17 15 -13 16 -12 3 4 -13 16 -21 21 -21
13z"/>
<path d="M4640 5396 c0 -2 7 -7 16 -10 8 -3 12 -2 9 4 -6 10 -25 14 -25 6z"/>
<path d="M4604 5362 c4 -3 14 -7 22 -8 9 -1 13 0 10 4 -4 3 -14 7 -22 8 -9 1
-13 0 -10 -4z"/>
<path d="M4671 5354 c0 -11 3 -14 6 -6 3 7 2 16 -1 19 -3 4 -6 -2 -5 -13z"/>
<path d="M4626 5301 c-4 -5 3 -7 14 -4 23 6 26 13 6 13 -8 0 -17 -4 -20 -9z"/>
<path d="M4595 5270 c-3 -5 -3 -10 1 -10 4 0 -1 -10 -12 -22 -19 -23 -19 -23
2 -5 11 9 21 24 21 32 0 18 -3 19 -12 5z"/>
<path d="M4554 5248 l-19 -23 23 19 c21 18 27 26 19 26 -2 0 -12 -10 -23 -22z"/>
<path d="M4474 5240 c0 -13 4 -16 10 -10 7 7 7 13 0 20 -6 6 -10 3 -10 -10z"/>
<path d="M4515 5241 c-3 -5 -2 -12 3 -15 5 -3 9 1 9 9 0 17 -3 19 -12 6z"/>
<path d="M4626 5223 c-6 -14 -5 -15 5 -6 7 7 10 15 7 18 -3 3 -9 -2 -12 -12z"/>
<path d="M4527 5199 c7 -7 15 -10 18 -7 3 3 -2 9 -12 12 -14 6 -15 5 -6 -5z"/>
<path d="M4590 5206 c0 -2 7 -7 16 -10 8 -3 12 -2 9 4 -6 10 -25 14 -25 6z"/>
<path d="M4495 5180 c-3 -5 -1 -10 4 -10 6 0 11 5 11 10 0 6 -2 10 -4 10 -3 0
-8 -4 -11 -10z"/>
<path d="M4588 5177 c7 -8 9 -17 5 -20 -3 -4 -1 -7 5 -7 18 0 14 27 -4 34 -13
5 -14 4 -6 -7z"/>
<path d="M4513 5135 c0 -8 4 -12 9 -9 5 3 6 10 3 15 -9 13 -12 11 -12 -6z"/>
<path d="M4549 5134 c6 -12 7 -24 3 -28 -3 -4 2 -4 12 0 15 6 17 4 11 -6 -5
-8 -4 -11 3 -6 6 4 9 13 5 22 -3 8 -8 12 -11 10 -3 -3 -11 2 -19 12 -13 15
-13 15 -4 -4z"/>
<path d="M4405 5120 c-3 -6 1 -7 9 -4 18 7 21 14 7 14 -6 0 -13 -4 -16 -10z"/>
<path d="M4496 5078 c3 -4 11 -5 19 -1 21 7 19 12 -4 10 -11 0 -18 -5 -15 -9z"/>
<path d="M4435 5071 c-3 -5 -2 -12 3 -15 5 -3 9 1 9 9 0 17 -3 19 -12 6z"/>
<path d="M4527 5063 c-10 -10 -8 -41 2 -48 5 -3 13 0 17 6 5 8 3 9 -6 4 -10
-6 -12 -1 -8 19 6 28 5 30 -5 19z"/>
<path d="M4557 5059 c7 -7 15 -10 18 -7 3 3 -2 9 -12 12 -14 6 -15 5 -6 -5z"/>
<path d="M4494 5040 c0 -13 4 -16 10 -10 7 7 7 13 0 20 -6 6 -10 3 -10 -10z"/>
<path d="M5410 5050 c-9 -6 -10 -10 -3 -10 6 0 15 5 18 10 8 12 4 12 -15 0z"/>
<path d="M4375 5000 c3 -5 8 -10 11 -10 2 0 4 5 4 10 0 6 -5 10 -11 10 -5 0
-7 -4 -4 -10z"/>
<path d="M4426 5001 c-3 -4 6 -7 19 -7 14 0 22 2 19 5 -8 8 -34 10 -38 2z"/>
<path d="M5390 5000 c0 -5 5 -10 11 -10 5 0 7 5 4 10 -3 6 -8 10 -11 10 -2 0
-4 -4 -4 -10z"/>
<path d="M4476 4981 c-3 -5 2 -15 12 -22 15 -12 16 -12 5 2 -7 9 -10 19 -6 22
3 4 4 7 0 7 -3 0 -8 -4 -11 -9z"/>
<path d="M5355 4958 c-11 -23 -12 -28 -2 -16 9 12 17 14 24 7 6 -6 10 -5 10 5
0 8 -5 12 -10 9 -6 -4 -8 0 -4 10 11 30 -2 18 -18 -15z"/>
<path d="M4439 4948 c-5 -18 -6 -38 -1 -34 7 8 12 36 6 36 -2 0 -4 -1 -5 -2z"/>
<path d="M4460 4946 c0 -2 8 -10 18 -17 15 -13 16 -12 3 4 -13 16 -21 21 -21
13z"/>
<path d="M5416 4927 c3 -10 9 -15 12 -12 3 3 0 11 -7 18 -10 9 -11 8 -5 -6z"/>
<path d="M4500 4906 c0 -2 7 -6 15 -10 8 -3 15 -1 15 4 0 6 -7 10 -15 10 -8 0
-15 -2 -15 -4z"/>
<path d="M5344 4902 c4 -3 14 -7 22 -8 9 -1 13 0 10 4 -4 3 -14 7 -22 8 -9 1
-13 0 -10 -4z"/>
<path d="M5429 4878 c7 -9 9 -23 5 -30 -6 -10 -4 -11 7 0 11 10 10 15 -6 30
-17 15 -18 15 -6 0z"/>
<path d="M5310 4876 c0 -2 8 -10 18 -17 15 -13 16 -12 3 4 -13 16 -21 21 -21
13z"/>
<path d="M4335 4860 c3 -5 8 -10 11 -10 2 0 4 5 4 10 0 6 -5 10 -11 10 -5 0
-7 -4 -4 -10z"/>
<path d="M4396 4858 c3 -5 10 -6 15 -3 13 9 11 12 -6 12 -8 0 -12 -4 -9 -9z"/>
<path d="M4435 4862 c3 -3 0 -10 -5 -17 -7 -8 -5 -12 5 -12 8 0 13 3 10 5 -3
3 0 10 5 17 7 8 5 12 -5 12 -8 0 -13 -3 -10 -5z"/>
<path d="M4496 4857 c3 -10 9 -15 12 -12 3 3 0 11 -7 18 -10 9 -11 8 -5 -6z"/>
<path d="M5296 4834 c-5 -14 -4 -15 9 -4 17 14 19 20 6 20 -5 0 -12 -7 -15
-16z"/>
<path d="M5396 4833 c-6 -14 -5 -15 5 -6 7 7 10 15 7 18 -3 3 -9 -2 -12 -12z"/>
<path d="M4335 4820 c-3 -5 -1 -10 4 -10 6 0 11 5 11 10 0 6 -2 10 -4 10 -3 0
-8 -4 -11 -10z"/>
<path d="M4417 4801 c-4 -17 -3 -21 5 -13 5 5 8 16 6 23 -3 8 -7 3 -11 -10z"/>
<path d="M4450 4814 c0 -2 9 -8 20 -14 11 -6 20 -7 20 -2 0 6 -9 12 -20 15
-11 3 -20 3 -20 1z"/>
<path d="M5275 4800 c-3 -5 -3 -10 2 -10 4 0 1 -5 -7 -10 -12 -7 -10 -9 7 -7
15 1 19 5 13 13 -6 6 -7 14 -3 17 3 4 4 7 0 7 -3 0 -9 -4 -12 -10z"/>
<path d="M5410 4800 c0 -5 5 -10 11 -10 5 0 7 5 4 10 -3 6 -8 10 -11 10 -2 0
-4 -4 -4 -10z"/>
<path d="M4436 4783 c-6 -14 -5 -15 5 -6 7 7 10 15 7 18 -3 3 -9 -2 -12 -12z"/>
<path d="M4360 4766 c0 -2 8 -10 18 -17 15 -13 16 -12 3 4 -13 16 -21 21 -21
13z"/>
<path d="M4395 4760 c3 -5 8 -10 11 -10 2 0 4 5 4 10 0 6 -5 10 -11 10 -5 0
-7 -4 -4 -10z"/>
<path d="M4450 4758 c0 -11 12 -10 30 2 12 7 10 9 -8 7 -12 0 -22 -5 -22 -9z"/>
<path d="M4441 4724 c0 -11 3 -14 6 -6 3 7 2 16 -1 19 -3 4 -6 -2 -5 -13z"/>
<path d="M4417 4711 c-4 -17 -3 -21 5 -13 5 5 8 16 6 23 -3 8 -7 3 -11 -10z"/>
<path d="M5290 4721 c0 -6 4 -12 8 -15 5 -3 9 1 9 9 0 8 -4 15 -9 15 -4 0 -8
-4 -8 -9z"/>
<path d="M5386 4722 c-3 -5 1 -9 9 -9 8 0 12 4 9 9 -3 4 -7 8 -9 8 -2 0 -6 -4
-9 -8z"/>
<path d="M4315 4700 c-3 -5 -1 -10 4 -10 6 0 11 5 11 10 0 6 -2 10 -4 10 -3 0
-8 -4 -11 -10z"/>
<path d="M4453 4695 c-3 -9 -3 -18 -1 -21 3 -3 8 4 11 16 6 23 -1 27 -10 5z"/>
<path d="M5253 4687 c0 -8 6 -14 14 -14 9 0 10 4 2 14 -6 7 -12 13 -14 13 -1
0 -2 -6 -2 -13z"/>
<path d="M4353 4670 c1 -21 10 -18 13 5 1 8 -2 15 -6 15 -5 0 -8 -9 -7 -20z"/>
<path d="M4420 4680 c-9 -6 -10 -10 -3 -10 6 0 15 5 18 10 8 12 4 12 -15 0z"/>
<path d="M5339 4688 c-5 -18 -6 -38 -1 -34 7 8 12 36 6 36 -2 0 -4 -1 -5 -2z"/>
<path d="M4255 4660 c3 -5 8 -10 11 -10 2 0 4 5 4 10 0 6 -5 10 -11 10 -5 0
-7 -4 -4 -10z"/>
<path d="M4310 4666 c0 -2 7 -7 16 -10 8 -3 12 -2 9 4 -6 10 -25 14 -25 6z"/>
<path d="M4395 4650 c-3 -6 1 -7 9 -4 18 7 21 14 7 14 -6 0 -13 -4 -16 -10z"/>
<path d="M4250 4620 c0 -5 5 -10 11 -10 5 0 7 5 4 10 -3 6 -8 10 -11 10 -2 0
-4 -4 -4 -10z"/>
<path d="M4390 4626 c0 -2 9 -6 20 -9 11 -3 18 -1 14 4 -5 9 -34 13 -34 5z"/>
<path d="M5290 4620 c0 -5 5 -10 11 -10 5 0 7 5 4 10 -3 6 -8 10 -11 10 -2 0
-4 -4 -4 -10z"/>
<path d="M4356 4595 c-9 -26 -7 -32 5 -12 6 10 9 21 6 23 -2 3 -7 -2 -11 -11z"/>
<path d="M4216 4582 c-3 -5 1 -9 9 -9 8 0 12 4 9 9 -3 4 -7 8 -9 8 -2 0 -6 -4
-9 -8z"/>
<path d="M4410 4579 c0 -5 5 -7 10 -4 6 3 10 8 10 11 0 2 -4 4 -10 4 -5 0 -10
-5 -10 -11z"/>
<path d="M4290 4576 c0 -2 8 -10 18 -17 15 -13 16 -12 3 4 -13 16 -21 21 -21
13z"/>
<path d="M4382 4564 c10 -10 20 -15 24 -12 3 4 -5 12 -18 18 -22 12 -22 12 -6
-6z"/>
<path d="M4239 4553 c-13 -16 -12 -17 4 -4 16 13 21 21 13 21 -2 0 -10 -8 -17
-17z"/>
<path d="M4346 4543 c-6 -14 -5 -15 5 -6 7 7 10 15 7 18 -3 3 -9 -2 -12 -12z"/>
<path d="M4270 4546 c0 -2 7 -7 16 -10 8 -3 12 -2 9 4 -6 10 -25 14 -25 6z"/>
<path d="M4355 4520 c-3 -6 1 -7 9 -4 18 7 21 14 7 14 -6 0 -13 -4 -16 -10z"/>
<path d="M4300 4504 c0 -1 6 -7 14 -13 10 -9 15 -8 19 2 3 8 -3 13 -14 13 -11
0 -19 -1 -19 -2z"/>
<path d="M4254 4480 c0 -13 4 -16 10 -10 7 7 7 13 0 20 -6 6 -10 3 -10 -10z"/>
<path d="M4336 4475 c-3 -8 0 -17 6 -21 6 -4 8 -3 4 4 -3 5 -1 12 6 14 8 3 9
6 1 11 -6 4 -13 0 -17 -8z"/>
<path d="M5213 4471 c0 -11 5 -18 9 -15 4 3 5 11 1 19 -7 21 -12 19 -10 -4z"/>
<path d="M5255 4480 c3 -5 8 -10 11 -10 2 0 4 5 4 10 0 6 -5 10 -11 10 -5 0
-7 -4 -4 -10z"/>
<path d="M4170 4460 c0 -5 5 -10 11 -10 5 0 7 5 4 10 -3 6 -8 10 -11 10 -2 0
-4 -4 -4 -10z"/>
<path d="M4310 4461 c0 -6 4 -13 10 -16 6 -3 7 1 4 9 -7 18 -14 21 -14 7z"/>
<path d="M4238 4438 c-9 -5 -6 -7 9 -5 12 2 25 6 28 8 8 9 -23 6 -37 -3z"/>
<path d="M4345 4437 c-14 -11 -15 -16 -5 -22 9 -5 11 -4 6 3 -7 11 6 17 27 13
5 -1 6 3 2 9 -8 13 -8 13 -30 -3z"/>
<path d="M5173 4425 c0 -8 4 -12 9 -9 5 3 6 10 3 15 -9 13 -12 11 -12 -6z"/>
<path d="M4275 4421 c-3 -5 -2 -12 3 -15 5 -3 9 1 9 9 0 17 -3 19 -12 6z"/>
<path d="M4301 4404 c0 -11 3 -14 6 -6 3 7 2 16 -1 19 -3 4 -6 -2 -5 -13z"/>
<path d="M4105 4400 c-3 -6 1 -7 9 -4 18 7 21 14 7 14 -6 0 -13 -4 -16 -10z"/>
<path d="M4276 4375 c-9 -26 -7 -32 5 -12 6 10 9 21 6 23 -2 3 -7 -2 -11 -11z"/>
<path d="M5170 4380 c0 -5 5 -10 11 -10 5 0 7 5 4 10 -3 6 -8 10 -11 10 -2 0
-4 -4 -4 -10z"/>
<path d="M4304 4368 c3 -15 26 -23 26 -8 0 6 -4 9 -9 6 -5 -4 -12 -1 -14 4 -3
6 -4 5 -3 -2z"/>
<path d="M4299 4335 c17 -33 31 -51 31 -40 0 6 -10 21 -21 35 -13 17 -17 18
-10 5z"/>
<path d="M5130 4340 c0 -5 5 -10 11 -10 5 0 7 5 4 10 -3 6 -8 10 -11 10 -2 0
-4 -4 -4 -10z"/>
<path d="M4196 4318 c3 -5 10 -6 15 -3 13 9 11 12 -6 12 -8 0 -12 -4 -9 -9z"/>
<path d="M4110 4299 c0 -5 5 -7 10 -4 6 3 10 8 10 11 0 2 -4 4 -10 4 -5 0 -10
-5 -10 -11z"/>
<path d="M4275 4299 c-18 -9 -18 -9 3 -5 16 3 22 -1 22 -14 0 -13 -6 -17 -22
-14 -21 4 -21 4 -3 -5 25 -11 35 -5 35 19 0 24 -10 30 -35 19z"/>
<path d="M4192 4267 c-8 -10 -6 -13 11 -14 12 0 16 1 9 4 -6 3 -10 9 -6 14 8
14 -2 11 -14 -4z"/>
<path d="M4153 4255 c0 -8 4 -12 9 -9 5 3 6 10 3 15 -9 13 -12 11 -12 -6z"/>
<path d="M5096 4262 c-3 -5 1 -9 9 -9 8 0 12 4 9 9 -3 4 -7 8 -9 8 -2 0 -6 -4
-9 -8z"/>
<path d="M4250 4238 c0 -4 4 -8 9 -8 6 0 12 4 15 8 3 5 -1 9 -9 9 -8 0 -15 -4
-15 -9z"/>
<path d="M4227 4212 c5 -11 3 -13 -7 -7 -9 5 -11 4 -6 -4 6 -9 12 -9 24 1 10
7 18 13 20 14 1 1 -6 4 -17 7 -15 3 -18 1 -14 -11z"/>
<path d="M4276 4222 c-3 -5 1 -9 9 -9 8 0 12 4 9 9 -3 4 -7 8 -9 8 -2 0 -6 -4
-9 -8z"/>
<path d="M4115 4211 c-3 -5 -2 -12 3 -15 5 -3 9 1 9 9 0 17 -3 19 -12 6z"/>
<path d="M4183 4199 c9 -6 15 -14 12 -20 -4 -5 -1 -9 4 -9 6 0 11 4 11 8 0 12
-22 32 -34 32 -6 0 -3 -5 7 -11z"/>
<path d="M4278 4193 c7 -3 16 -2 19 1 4 3 -2 6 -13 5 -11 0 -14 -3 -6 -6z"/>
<path d="M4241 4173 c-1 -6 -4 -20 -7 -30 -5 -17 -5 -17 6 0 6 10 9 23 6 30
-3 9 -5 9 -5 0z"/>
<path d="M4189 4143 c-13 -17 -13 -17 6 -3 11 8 22 16 24 17 2 2 0 3 -6 3 -6
0 -17 -8 -24 -17z"/>
<path d="M5035 4140 c-3 -5 -1 -10 4 -10 6 0 11 5 11 10 0 6 -2 10 -4 10 -3 0
-8 -4 -11 -10z"/>
<path d="M4145 4120 c-3 -6 1 -7 9 -4 18 7 21 14 7 14 -6 0 -13 -4 -16 -10z"/>
<path d="M5140 4126 c0 -2 8 -10 18 -17 15 -13 16 -12 3 4 -13 16 -21 21 -21
13z"/>
<path d="M3995 4111 c-3 -5 -2 -12 3 -15 5 -3 9 1 9 9 0 17 -3 19 -12 6z"/>
<path d="M4190 4110 c-8 -5 -10 -10 -5 -10 6 0 17 5 25 10 8 5 11 10 5 10 -5
0 -17 -5 -25 -10z"/>
<path d="M4056 4102 c-3 -5 1 -9 9 -9 8 0 12 4 9 9 -3 4 -7 8 -9 8 -2 0 -6 -4
-9 -8z"/>
<path d="M4130 4097 c0 -2 6 -10 14 -16 11 -9 16 -9 22 1 4 7 4 10 -1 6 -4 -4
-14 -3 -22 3 -7 6 -13 9 -13 6z"/>
<path d="M4115 4070 c10 -11 20 -20 23 -20 3 0 -3 9 -13 20 -10 11 -20 20 -23
20 -3 0 3 -9 13 -20z"/>
<path d="M4193 4069 c-2 -23 3 -25 10 -4 4 8 3 16 -1 19 -4 3 -9 -4 -9 -15z"/>
<path d="M4235 4080 c3 -5 11 -10 16 -10 6 0 7 5 4 10 -3 6 -11 10 -16 10 -6
0 -7 -4 -4 -10z"/>
<path d="M4216 4063 c-10 -10 -7 -33 4 -33 5 0 7 7 4 15 -5 11 -2 13 10 9 9
-3 16 -4 16 -1 0 8 -28 16 -34 10z"/>
<path d="M4073 4045 c0 -8 4 -12 9 -9 5 3 6 10 3 15 -9 13 -12 11 -12 -6z"/>
<path d="M4196 4005 c10 -8 23 -15 28 -15 6 0 1 7 -10 15 -10 8 -23 15 -28 15
-6 0 -1 -7 10 -15z"/>
<path d="M4005 3999 c-3 -4 2 -6 10 -5 21 3 28 13 10 13 -9 0 -18 -4 -20 -8z"/>
<path d="M4186 3963 c-6 -14 -5 -15 5 -6 7 7 10 15 7 18 -3 3 -9 -2 -12 -12z"/>
<path d="M4150 3965 c0 -5 5 -17 10 -25 5 -8 10 -10 10 -5 0 6 -5 17 -10 25
-5 8 -10 11 -10 5z"/>
<path d="M4180 3935 c0 -5 5 -17 10 -25 5 -8 10 -10 10 -5 0 6 -5 17 -10 25
-5 8 -10 11 -10 5z"/>
<path d="M4006 3902 c-3 -5 1 -9 9 -9 8 0 12 4 9 9 -3 4 -7 8 -9 8 -2 0 -6 -4
-9 -8z"/>
<path d="M4139 3888 c15 -21 31 -23 31 -6 0 6 -3 8 -7 5 -3 -4 -13 -1 -22 6
-14 11 -14 10 -2 -5z"/>
<path d="M4111 3867 c-8 -10 -7 -14 2 -14 8 0 14 6 14 14 0 7 -1 13 -2 13 -2
0 -8 -6 -14 -13z"/>
<path d="M4090 3816 c0 -2 8 -10 18 -17 15 -13 16 -12 3 4 -13 16 -21 21 -21
13z"/>
<path d="M4070 3782 c0 -5 7 -9 15 -9 8 0 12 4 9 9 -3 4 -9 8 -15 8 -5 0 -9
-4 -9 -8z"/>
<path d="M4126 3762 c-3 -5 1 -9 9 -9 8 0 12 4 9 9 -3 4 -7 8 -9 8 -2 0 -6 -4
-9 -8z"/>
<path d="M3975 3740 c-3 -5 -1 -10 4 -10 6 0 11 5 11 10 0 6 -2 10 -4 10 -3 0
-8 -4 -11 -10z"/>
<path d="M4108 3738 c5 -5 16 -8 23 -6 8 3 3 7 -10 11 -17 4 -21 3 -13 -5z"/>
<path d="M4026 3722 c-2 -4 4 -8 14 -8 10 0 16 4 14 8 -3 4 -9 8 -14 8 -5 0
-11 -4 -14 -8z"/>
<path d="M4073 3715 c0 -8 4 -12 9 -9 4 3 8 9 8 15 0 5 -4 9 -8 9 -5 0 -9 -7
-9 -15z"/>
<path d="M4096 3688 c5 -7 2 -9 -8 -6 -8 4 -15 0 -15 -7 0 -11 5 -11 21 -3 29
15 29 15 11 22 -11 4 -14 2 -9 -6z"/>
<path d="M3690 3680 c0 -5 5 -10 11 -10 5 0 7 5 4 10 -3 6 -8 10 -11 10 -2 0
-4 -4 -4 -10z"/>
<path d="M3999 3683 c0 -5 -2 -16 -4 -26 -2 -11 -1 -16 3 -13 8 8 14 46 7 46
-3 0 -5 -3 -6 -7z"/>
<path d="M3846 3658 c3 -5 10 -6 15 -3 13 9 11 12 -6 12 -8 0 -12 -4 -9 -9z"/>
<path d="M4036 3633 c-6 -14 -5 -15 5 -6 7 7 10 15 7 18 -3 3 -9 -2 -12 -12z"/>
<path d="M4111 3634 c0 -11 3 -14 6 -6 3 7 2 16 -1 19 -3 4 -6 -2 -5 -13z"/>
<path d="M4076 3623 c-6 -14 -5 -15 5 -6 7 7 10 15 7 18 -3 3 -9 -2 -12 -12z"/>
<path d="M3907 3599 c7 -7 15 -10 18 -7 3 3 -2 9 -12 12 -14 6 -15 5 -6 -5z"/>
<path d="M4036 3597 c3 -10 9 -15 12 -12 3 3 0 11 -7 18 -10 9 -11 8 -5 -6z"/>
<path d="M4070 3590 c0 -6 7 -10 15 -10 8 0 15 2 15 4 0 2 -7 6 -15 10 -8 3
-15 1 -15 -4z"/>
<path d="M3755 3580 c-3 -5 -1 -10 4 -10 6 0 11 5 11 10 0 6 -2 10 -4 10 -3 0
-8 -4 -11 -10z"/>
<path d="M3996 3574 c-3 -9 -2 -22 2 -31 6 -10 9 -5 9 16 0 35 -2 38 -11 15z"/>
<path d="M3948 3573 c7 -3 16 -2 19 1 4 3 -2 6 -13 5 -11 0 -14 -3 -6 -6z"/>
<path d="M4110 3572 c0 -7 -5 -10 -11 -6 -6 3 -3 -5 6 -19 9 -15 14 -31 10
-37 -3 -5 -1 -10 4 -10 6 0 11 7 11 16 0 9 6 14 13 11 8 -3 20 -1 28 5 11 8
10 9 -3 4 -10 -3 -18 0 -18 6 0 6 -6 5 -17 -3 -14 -12 -16 -12 -11 2 3 9 2 22
-3 30 -7 11 -9 11 -9 1z"/>
<path d="M4020 3558 c0 -11 22 -10 39 1 10 7 7 9 -12 8 -15 -1 -27 -5 -27 -9z"/>
<path d="M3956 3547 c3 -10 9 -15 12 -12 3 3 0 11 -7 18 -10 9 -11 8 -5 -6z"/>
<path d="M3980 3525 c0 -8 -1 -18 -2 -22 -2 -4 9 -10 25 -14 16 -4 25 -3 21 2
-3 5 -13 9 -24 9 -13 0 -17 5 -13 20 3 11 3 20 -1 20 -3 0 -6 -7 -6 -15z"/>
<path d="M3816 3522 c-3 -4 4 -9 15 -9 23 -2 25 3 4 10 -8 4 -16 3 -19 -1z"/>
<path d="M3873 3506 l-18 -21 24 20 c13 11 25 19 28 17 3 -2 7 -2 9 1 2 2 -3
4 -11 4 -8 0 -23 -10 -32 -21z"/>
<path d="M4014 3518 c-4 -6 -3 -8 4 -4 5 3 13 0 15 -6 3 -8 6 -6 6 5 1 19 -14
23 -25 5z"/>
<path d="M3950 3501 c0 -6 4 -13 10 -16 6 -3 7 1 4 9 -7 18 -14 21 -14 7z"/>
<path d="M3835 3490 c-4 -6 -10 -8 -14 -6 -4 3 -8 -1 -8 -9 0 -13 4 -12 19 2
18 16 22 23 14 23 -3 0 -8 -5 -11 -10z"/>
<path d="M3931 3484 c0 -11 3 -14 6 -6 3 7 2 16 -1 19 -3 4 -6 -2 -5 -13z"/>
<path d="M3735 3480 c3 -5 8 -10 11 -10 2 0 4 5 4 10 0 6 -5 10 -11 10 -5 0
-7 -4 -4 -10z"/>
<path d="M3926 3445 c-3 -8 -1 -15 4 -15 6 0 10 7 10 15 0 8 -2 15 -4 15 -2 0
-6 -7 -10 -15z"/>
<path d="M3830 3446 c0 -2 7 -7 16 -10 8 -3 12 -2 9 4 -6 10 -25 14 -25 6z"/>
<path d="M3873 3433 c0 -9 4 -10 14 -2 7 6 13 12 13 14 0 1 -6 2 -13 2 -8 0
-14 -6 -14 -14z"/>
<path d="M3897 3423 c-2 -5 -3 -15 -2 -23 0 -8 -9 -18 -20 -22 -17 -6 -16 -7
5 -5 14 1 24 7 22 12 -2 6 7 13 20 17 l23 6 -23 1 c-13 1 -20 6 -17 11 3 6 4
10 1 10 -3 0 -7 -3 -9 -7z"/>
<path d="M3775 3399 c-3 -4 2 -6 10 -5 21 3 28 13 10 13 -9 0 -18 -4 -20 -8z"/>
<path d="M3860 3400 c-9 -6 -10 -10 -3 -10 6 0 15 5 18 10 8 12 4 12 -15 0z"/>
<path d="M4636 3395 c-3 -9 -11 -13 -17 -9 -8 5 -9 3 -4 -5 6 -10 11 -9 23 3
9 8 13 18 10 21 -3 3 -8 -1 -12 -10z"/>
<path d="M6766 3398 c3 -5 10 -6 15 -3 13 9 11 12 -6 12 -8 0 -12 -4 -9 -9z"/>
<path d="M3803 3375 c-3 -9 -3 -18 -1 -21 3 -3 8 4 11 16 6 23 -1 27 -10 5z"/>
<path d="M3777 3359 c4 -13 8 -18 11 -10 2 7 -1 18 -6 23 -8 8 -9 4 -5 -13z"/>
<path d="M3710 3346 c0 -2 7 -7 16 -10 8 -3 12 -2 9 4 -6 10 -25 14 -25 6z"/>
<path d="M3835 3340 c6 -10 4 -12 -9 -7 -10 4 -15 3 -11 -3 8 -13 35 -13 35
-1 0 6 -5 13 -12 17 -7 5 -8 3 -3 -6z"/>
<path d="M3871 3330 c0 -8 4 -22 9 -30 12 -18 12 -2 0 25 -6 13 -9 15 -9 5z"/>
<path d="M4595 3331 c-3 -5 -2 -12 3 -15 5 -3 9 1 9 9 0 17 -3 19 -12 6z"/>
<path d="M3801 3313 c-1 -17 16 -25 25 -12 4 7 3 9 -4 5 -5 -3 -13 0 -15 6 -4
9 -6 10 -6 1z"/>
<path d="M3842 3298 c-6 -6 -12 -16 -12 -22 0 -5 7 -1 15 10 15 19 16 19 13
-1 -2 -11 -7 -23 -13 -27 -6 -5 -6 -8 1 -8 22 0 35 25 21 44 -10 13 -15 14
-25 4z"/>
<path d="M3674 3289 c-3 -6 -2 -15 3 -20 5 -5 9 -1 9 11 0 23 -2 24 -12 9z"/>
<path d="M3770 3282 c0 -5 7 -9 15 -9 8 0 12 4 9 9 -3 4 -9 8 -15 8 -5 0 -9
-4 -9 -8z"/>
<path d="M3805 3259 c-4 -6 -4 -13 -1 -16 3 -4 6 -1 6 6 0 7 5 9 12 5 7 -4 8
-3 4 4 -9 15 -13 15 -21 1z"/>
<path d="M3633 3235 c0 -8 4 -12 9 -9 5 3 6 10 3 15 -9 13 -12 11 -12 -6z"/>
<path d="M3696 3238 c3 -4 11 -5 19 -1 21 7 19 12 -4 10 -11 0 -18 -5 -15 -9z"/>
<path d="M3593 3225 c0 -8 4 -12 9 -9 5 3 6 10 3 15 -9 13 -12 11 -12 -6z"/>
<path d="M3828 3233 c7 -3 16 -2 19 1 4 3 -2 6 -13 5 -11 0 -14 -3 -6 -6z"/>
<path d="M3746 3217 c3 -10 9 -15 12 -12 3 3 0 11 -7 18 -10 9 -11 8 -5 -6z"/>
<path d="M3790 3220 c0 -5 5 -10 10 -10 6 0 10 5 10 10 0 6 -4 10 -10 10 -5 0
-10 -4 -10 -10z"/>
<path d="M3855 3220 c-4 -6 -11 -8 -16 -5 -5 4 -12 -1 -15 -9 -3 -9 -11 -13
-18 -9 -6 4 -5 -1 3 -10 7 -9 19 -17 25 -16 7 0 7 2 -1 5 -7 3 -9 12 -6 20 3
7 8 12 13 9 4 -2 16 2 26 10 10 8 14 15 7 15 -6 0 -15 -5 -18 -10z"/>
<path d="M3713 3192 c-9 -15 -8 -19 3 -19 7 0 10 5 7 10 -4 7 1 8 12 3 15 -5
16 -4 5 9 -15 18 -13 19 -27 -3z"/>
<path d="M7450 3203 c5 -2 10 -9 10 -14 0 -6 -4 -8 -9 -5 -4 3 -17 -1 -27 -9
-16 -13 -17 -16 -4 -25 19 -13 30 -13 30 1 0 5 -4 8 -9 4 -5 -3 -12 -1 -16 5
-3 5 -1 11 4 11 6 1 17 2 24 3 16 1 16 29 -1 32 -7 1 -8 0 -2 -3z"/>
<path d="M3756 3174 c-8 -20 -8 -24 2 -24 4 0 8 9 9 20 2 24 -3 26 -11 4z"/>
<path d="M7555 3170 c10 -11 20 -20 23 -20 3 0 -3 9 -13 20 -10 11 -20 20 -23
20 -3 0 3 -9 13 -20z"/>
<path d="M7473 3163 c-3 -10 -8 -22 -11 -27 -3 -5 0 -6 5 -3 11 7 25 47 17 47
-3 0 -7 -8 -11 -17z"/>
<path d="M3636 3158 c3 -5 10 -6 15 -3 13 9 11 12 -6 12 -8 0 -12 -4 -9 -9z"/>
<path d="M3780 3166 c0 -2 7 -6 15 -10 8 -3 15 -1 15 4 0 6 -7 10 -15 10 -8 0
-15 -2 -15 -4z"/>
<path d="M3717 3126 c10 -12 18 -22 19 -24 1 -1 4 6 7 17 3 15 1 18 -11 14 -9
-4 -13 -2 -9 4 3 5 0 10 -8 10 -12 0 -12 -4 2 -21z"/>
<path d="M7390 3141 c0 -5 6 -12 13 -15 10 -5 10 -7 0 -12 -7 -3 -13 -10 -13
-15 0 -5 9 -4 20 3 11 7 20 15 20 18 0 3 -9 11 -20 18 -11 7 -20 8 -20 3z"/>
<path d="M7516 3138 c3 -5 10 -6 15 -3 13 9 11 12 -6 12 -8 0 -12 -4 -9 -9z"/>
<path d="M7553 3143 c4 -3 -1 -16 -10 -27 -18 -21 -18 -21 4 -2 20 16 23 36 6
36 -4 0 -3 -3 0 -7z"/>
<path d="M3785 3120 c3 -5 11 -10 16 -10 6 0 7 5 4 10 -3 6 -11 10 -16 10 -6
0 -7 -4 -4 -10z"/>
<path d="M3827 3112 c-10 -10 -17 -24 -17 -30 0 -6 -8 -16 -17 -22 -12 -8 -13
-10 -3 -7 8 2 20 13 25 24 6 11 18 19 28 17 9 -1 17 2 17 7 0 5 -5 9 -11 9 -5
0 -7 5 -4 10 10 16 -1 11 -18 -8z"/>
<path d="M3510 3101 c0 -6 4 -13 10 -16 6 -3 7 1 4 9 -7 18 -14 21 -14 7z"/>
<path d="M3760 3098 c-12 -8 -11 -9 4 -4 13 5 17 2 12 -9 -3 -8 -1 -15 4 -15
12 0 13 27 2 34 -4 2 -14 0 -22 -6z"/>
<path d="M6815 3100 c-3 -5 -1 -10 4 -10 6 0 11 5 11 10 0 6 -2 10 -4 10 -3 0
-8 -4 -11 -10z"/>
<path d="M3656 3087 c3 -10 9 -15 12 -12 3 3 0 11 -7 18 -10 9 -11 8 -5 -6z"/>
<path d="M3717 3072 c-15 -16 -15 -18 2 -18 12 0 17 5 13 15 -4 10 -1 12 8 6
9 -5 11 -4 6 3 -9 15 -10 15 -29 -6z"/>
<path d="M3830 3070 c0 -5 7 -7 15 -4 8 4 15 8 15 10 0 2 -7 4 -15 4 -8 0 -15
-4 -15 -10z"/>
<path d="M7470 3060 c0 -5 5 -10 10 -10 6 0 10 5 10 10 0 6 -4 10 -10 10 -5 0
-10 -4 -10 -10z"/>
<path d="M7540 3065 c0 -2 6 -8 13 -14 10 -8 14 -7 14 2 0 8 -6 14 -14 14 -7
0 -13 -1 -13 -2z"/>
<path d="M3741 3041 c-10 -7 -7 -9 12 -8 14 1 23 5 20 10 -6 9 -15 9 -32 -2z"/>
<path d="M3810 3041 c0 -5 7 -12 16 -15 21 -8 24 -8 24 5 0 5 -4 7 -10 4 -5
-3 -10 -1 -10 4 0 6 -4 11 -10 11 -5 0 -10 -4 -10 -9z"/>
<path d="M7436 3035 c-3 -8 -1 -15 3 -15 5 0 11 7 15 15 3 8 1 15 -3 15 -5 0
-11 -7 -15 -15z"/>
<path d="M7492 3041 c-11 -7 -11 -9 0 -14 9 -3 15 1 15 9 0 8 -1 14 -1 14 -1
0 -7 -4 -14 -9z"/>
<path d="M3616 3022 c-2 -4 -1 -14 4 -22 7 -11 9 -9 7 8 -1 24 -3 26 -11 14z"/>
<path d="M6815 3020 c3 -5 8 -10 11 -10 2 0 4 5 4 10 0 6 -5 10 -11 10 -5 0
-7 -4 -4 -10z"/>
<path d="M7590 3025 c0 -7 30 -13 34 -7 3 4 -4 9 -15 9 -10 1 -19 0 -19 -2z"/>
<path d="M3757 3007 c-3 -8 1 -14 8 -14 7 0 11 6 8 14 -3 7 -6 13 -8 13 -2 0
-5 -6 -8 -13z"/>
<path d="M3801 3015 c-1 -17 17 -38 33 -41 9 -1 14 2 10 7 -3 5 -10 6 -16 3
-8 -5 -9 -1 -5 10 4 9 3 15 -2 11 -5 -3 -12 1 -14 7 -3 7 -6 9 -6 3z"/>
<path d="M7517 3013 c-10 -9 -9 -23 1 -23 5 0 9 7 9 15 0 17 -1 18 -10 8z"/>
<path d="M7451 3007 c2 -1 13 -9 24 -17 19 -14 19 -14 6 3 -7 9 -18 17 -24 17
-6 0 -8 -1 -6 -3z"/>
<path d="M7615 2991 c-3 -5 -2 -12 3 -15 5 -3 9 1 9 9 0 17 -3 19 -12 6z"/>
<path d="M3655 2980 c3 -5 8 -10 11 -10 2 0 4 5 4 10 0 6 -5 10 -11 10 -5 0
-7 -4 -4 -10z"/>
<path d="M3791 2985 c1 -19 18 -51 18 -35 0 8 -4 22 -9 30 -5 8 -9 11 -9 5z"/>
<path d="M7449 2984 c6 -3 7 -12 4 -20 -3 -8 -1 -14 5 -14 14 0 8 33 -7 36 -6
1 -7 0 -2 -2z"/>
<path d="M3737 2969 c7 -7 15 -10 18 -7 3 3 -2 9 -12 12 -14 6 -15 5 -6 -5z"/>
<path d="M7492 2971 c-11 -7 -11 -9 0 -14 9 -3 15 1 15 9 0 8 -1 14 -1 14 -1
0 -7 -4 -14 -9z"/>
<path d="M3653 2945 c0 -8 4 -12 9 -9 5 3 6 10 3 15 -9 13 -12 11 -12 -6z"/>
<path d="M3750 2940 c0 -5 5 -10 10 -10 6 0 10 5 10 10 0 6 -4 10 -10 10 -5 0
-10 -4 -10 -10z"/>
<path d="M7430 2931 c0 -6 5 -13 12 -17 6 -4 8 -3 4 4 -3 5 0 13 6 15 8 3 6 6
-4 6 -10 1 -18 -3 -18 -8z"/>
<path d="M7485 2930 c-16 -7 -17 -9 -3 -9 9 -1 20 4 23 9 7 11 7 11 -20 0z"/>
<path d="M3810 2919 c0 -5 5 -7 10 -4 6 3 10 8 10 11 0 2 -4 4 -10 4 -5 0 -10
-5 -10 -11z"/>
<path d="M6745 2920 c-3 -6 1 -7 9 -4 18 7 21 14 7 14 -6 0 -13 -4 -16 -10z"/>
<path d="M7410 2918 c0 -9 7 -22 17 -29 15 -13 15 -12 3 11 -17 34 -20 36 -20
18z"/>
<path d="M7531 2914 c0 -11 3 -14 6 -6 3 7 2 16 -1 19 -3 4 -6 -2 -5 -13z"/>
<path d="M7586 2922 c-3 -5 1 -9 9 -9 8 0 12 4 9 9 -3 4 -7 8 -9 8 -2 0 -6 -4
-9 -8z"/>
<path d="M7455 2900 c-3 -6 1 -7 9 -4 18 7 21 14 7 14 -6 0 -13 -4 -16 -10z"/>
<path d="M3774 2883 c1 -7 4 -14 7 -15 2 -2 3 -1 2 1 -2 2 4 9 13 15 13 10 13
12 -4 12 -11 0 -19 -6 -18 -13z"/>
<path d="M7376 2885 c4 -8 8 -15 10 -15 2 0 4 7 4 15 0 8 -4 15 -10 15 -5 0
-7 -7 -4 -15z"/>
<path d="M7400 2880 c0 -5 5 -10 11 -10 5 0 7 5 4 10 -3 6 -8 10 -11 10 -2 0
-4 -4 -4 -10z"/>
<path d="M7465 2880 c-3 -5 -1 -10 4 -10 6 0 11 5 11 10 0 6 -2 10 -4 10 -3 0
-8 -4 -11 -10z"/>
<path d="M7530 2881 c0 -6 4 -13 10 -16 6 -3 7 1 4 9 -7 18 -14 21 -14 7z"/>
<path d="M6813 2855 c0 -8 4 -12 9 -9 5 3 6 10 3 15 -9 13 -12 11 -12 -6z"/>
<path d="M7430 2860 c0 -5 5 -10 10 -10 6 0 10 5 10 10 0 6 -4 10 -10 10 -5 0
-10 -4 -10 -10z"/>
<path d="M7490 2840 c0 -5 5 -10 10 -10 6 0 10 5 10 10 0 6 -4 10 -10 10 -5 0
-10 -4 -10 -10z"/>
<path d="M3713 2825 c0 -8 4 -12 9 -9 5 3 6 10 3 15 -9 13 -12 11 -12 -6z"/>
<path d="M3755 2769 c-4 -6 -5 -12 -2 -15 2 -3 7 2 10 11 7 17 1 20 -8 4z"/>
<path d="M4470 2716 c0 -2 8 -10 18 -17 15 -13 16 -12 3 4 -13 16 -21 21 -21
13z"/>
<path d="M6913 2236 c-3 -6 -3 -8 2 -4 4 4 13 3 20 -2 8 -7 12 -5 12 3 0 16
-25 18 -34 3z"/>
<path d="M6973 2235 c0 -8 4 -12 9 -9 5 3 6 10 3 15 -9 13 -12 11 -12 -6z"/>
<path d="M7090 2239 c0 -5 5 -9 10 -9 6 0 12 0 15 0 14 0 8 13 -7 16 -10 1
-18 -2 -18 -7z"/>
<path d="M7246 2226 c10 -8 21 -12 24 -10 5 6 -21 24 -34 24 -6 0 -1 -6 10
-14z"/>
<path d="M7380 2236 c0 -2 7 -7 16 -10 8 -3 12 -2 9 4 -6 10 -25 14 -25 6z"/>
<path d="M7040 2226 c0 -2 7 -7 16 -10 8 -3 12 -2 9 4 -6 10 -25 14 -25 6z"/>
<path d="M7356 2213 c-6 -14 -5 -15 5 -6 7 7 10 15 7 18 -3 3 -9 -2 -12 -12z"/>
<path d="M7436 2213 c-6 -14 -5 -15 5 -6 7 7 10 15 7 18 -3 3 -9 -2 -12 -12z"/>
<path d="M7534 2216 c1 -8 5 -18 8 -22 4 -3 5 1 4 10 -1 8 -5 18 -8 22 -4 3
-5 -1 -4 -10z"/>
<path d="M6998 2213 c7 -3 16 -2 19 1 4 3 -2 6 -13 5 -11 0 -14 -3 -6 -6z"/>
<path d="M7077 2206 c-4 -9 -3 -15 2 -11 5 3 11 0 13 -7 3 -7 7 -5 11 6 4 9 3
15 -2 11 -5 -3 -11 0 -13 7 -3 7 -7 5 -11 -6z"/>
<path d="M7257 2186 c-15 -13 -27 -28 -26 -32 5 -29 -3 -41 -26 -41 -14 0 -25
3 -25 8 0 5 5 9 11 9 5 0 7 5 3 11 -5 8 -10 6 -16 -5 -13 -22 -3 -33 28 -33
17 0 28 6 31 18 3 10 9 16 14 13 5 -3 9 0 9 5 0 6 -6 11 -12 11 -7 0 0 12 16
26 15 14 26 27 24 29 -2 2 -16 -6 -31 -19z"/>
<path d="M7459 2193 c-13 -16 -12 -17 4 -4 16 13 21 21 13 21 -2 0 -10 -8 -17
-17z"/>
<path d="M6954 2175 c0 -13 3 -22 7 -19 8 4 6 30 -2 38 -3 3 -5 -5 -5 -19z"/>
<path d="M7114 2188 c-4 -7 -4 -10 0 -6 10 8 47 -23 40 -34 -3 -4 0 -8 5 -8
19 0 11 24 -14 43 -18 13 -25 14 -31 5z"/>
<path d="M7298 2182 c-16 -9 -28 -21 -28 -26 0 -4 6 -3 13 3 8 6 18 7 23 3 5
-4 5 -3 1 2 -4 6 3 16 15 23 13 7 19 12 13 12 -5 0 -22 -7 -37 -17z"/>
<path d="M7375 2191 c-3 -5 0 -13 6 -17 8 -5 9 -3 4 6 -6 9 -1 10 16 5 19 -5
21 -4 9 4 -19 13 -27 14 -35 2z"/>
<path d="M7027 2173 c4 -11 8 -11 20 -1 12 10 14 9 11 -8 -1 -10 -7 -23 -13
-27 -6 -5 -4 -7 5 -4 24 6 19 50 -7 52 -14 1 -19 -3 -16 -12z"/>
<path d="M7350 2185 c0 -5 9 -21 19 -34 14 -19 20 -21 26 -10 5 8 4 11 0 6 -5
-4 -17 5 -27 20 -10 16 -18 24 -18 18z"/>
<path d="M7080 2158 c0 -11 12 -10 30 2 12 7 10 9 -8 7 -12 0 -22 -5 -22 -9z"/>
<path d="M7320 2160 c0 -5 5 -10 10 -10 6 0 10 5 10 10 0 6 -4 10 -10 10 -5 0
-10 -4 -10 -10z"/>
<path d="M7130 2149 c0 -5 -5 -7 -10 -4 -6 3 -13 -1 -16 -10 -4 -9 -18 -21
-31 -26 -14 -5 -21 -14 -17 -20 5 -9 -1 -10 -20 -5 -14 3 -26 2 -26 -2 0 -5
12 -9 28 -8 16 1 26 6 25 14 -2 6 1 12 5 12 20 0 20 -15 0 -43 -12 -17 -17
-28 -11 -24 18 11 23 -19 7 -42 -8 -11 -11 -21 -5 -21 5 0 11 6 14 13 2 6 8 9
12 5 4 -4 2 -15 -6 -25 -9 -11 -10 -14 -1 -9 6 4 12 3 12 -3 0 -19 -18 -20
-34 -2 -14 16 -21 17 -41 7 -14 -6 -25 -15 -25 -20 0 -4 11 -1 23 7 22 14 25
14 41 -5 10 -11 14 -23 11 -26 -4 -4 -13 2 -21 12 -8 11 -14 15 -14 10 0 -15
45 -55 53 -47 4 3 7 1 7 -5 0 -15 -26 -16 -35 -2 -9 15 -27 0 -21 -17 4 -9 -5
-19 -27 -28 -17 -8 -27 -14 -20 -15 7 0 24 5 38 12 19 8 24 17 20 32 -5 19 -4
19 7 5 7 -9 19 -14 27 -11 8 3 11 0 7 -7 -4 -6 -2 -9 7 -5 8 3 14 -2 14 -11 0
-18 -2 -18 -27 -5 -16 8 -18 8 -14 -5 3 -8 10 -12 15 -9 15 9 10 -23 -6 -36
-12 -10 -18 -10 -30 0 -8 7 -15 9 -16 4 0 -5 -5 0 -10 11 l-9 20 3 -20 c1 -11
8 -21 15 -21 25 -3 26 -6 7 -14 -15 -7 -16 -9 -4 -9 9 -1 28 8 43 20 14 11 26
16 26 10 0 -14 -53 -49 -71 -46 -9 2 -16 -4 -16 -11 0 -8 4 -14 9 -14 4 0 8 5
8 11 0 5 4 8 9 5 5 -4 22 5 38 18 23 19 30 21 40 10 7 -7 9 -15 4 -19 -5 -3
-11 0 -13 6 -2 6 -12 0 -23 -12 -11 -12 -14 -19 -7 -15 6 4 12 3 12 -2 0 -16
-13 -22 -27 -11 -9 9 -13 8 -13 0 0 -6 5 -11 10 -11 6 0 10 -8 11 -17 0 -14 2
-13 9 5 5 12 15 22 21 22 8 0 7 5 -2 16 -12 15 -11 16 7 10 27 -8 39 17 19 38
-17 16 -20 30 -6 21 15 -8 24 14 12 29 -9 10 -3 13 29 13 31 0 38 -3 29 -13
-6 -7 -16 -11 -23 -8 -17 6 -27 -29 -14 -47 8 -11 9 -11 5 2 -3 8 3 21 14 27
10 7 19 8 19 3 0 -6 -5 -13 -10 -16 -6 -4 -8 -15 -5 -26 5 -14 3 -17 -9 -13
-9 3 -16 2 -17 -2 0 -5 -2 -20 -3 -34 -5 -37 3 -53 20 -39 10 8 13 6 11 -10
-1 -12 -7 -21 -14 -21 -20 0 -44 45 -36 66 6 16 5 17 -9 4 -9 -8 -14 -18 -11
-22 2 -5 -1 -8 -6 -8 -6 0 -11 -5 -11 -11 0 -8 6 -7 17 2 15 12 16 12 9 -6 -4
-11 -4 -16 0 -12 4 4 15 0 25 -9 18 -16 55 -12 45 4 -2 4 4 13 15 20 24 15 24
5 1 -31 -10 -15 -22 -24 -26 -20 -4 4 -4 1 -1 -8 4 -10 -1 -15 -16 -16 -17 -2
-18 1 -9 13 9 10 9 14 1 14 -6 0 -11 -4 -11 -10 0 -5 0 -13 0 -17 0 -5 9 -9
20 -9 14 -1 26 9 36 27 8 16 18 29 22 29 16 0 30 -23 25 -39 -4 -13 -3 -14 5
-1 6 8 9 17 7 20 -2 4 8 7 24 7 17 0 28 -6 28 -14 0 -8 -7 -11 -14 -9 -8 4
-11 1 -8 -5 4 -6 13 -8 21 -5 8 3 17 -1 21 -9 4 -11 9 -13 18 -5 12 10 25 4
25 -12 0 -5 -4 -7 -9 -4 -8 5 -51 -26 -51 -37 0 -3 12 -4 26 -2 15 1 28 -3 31
-11 3 -8 10 -14 15 -14 6 0 4 7 -3 16 -12 15 -11 16 8 10 18 -6 22 -3 22 14 2
61 1 58 27 46 25 -12 34 -32 9 -23 -20 8 -29 -11 -15 -28 9 -11 9 -15 1 -15
-6 0 -11 -5 -11 -11 0 -8 4 -8 14 0 20 17 43 -13 26 -34 -9 -10 -9 -15 -1 -15
6 0 11 5 11 11 0 5 5 7 12 3 7 -4 8 -3 4 4 -11 18 5 14 18 -4 12 -15 51 -10
41 6 -3 4 2 10 10 14 8 3 17 1 20 -4 4 -6 1 -10 -6 -10 -8 0 -7 -5 2 -16 12
-15 11 -16 -11 -10 -20 6 -22 5 -8 -4 18 -11 58 5 58 24 0 4 -7 3 -15 -4 -8
-7 -15 -9 -15 -4 0 13 20 41 20 29 0 -5 4 -3 10 5 5 9 5 19 -2 27 -7 8 -7 13
0 13 16 0 31 -25 23 -38 -4 -7 -7 -27 -6 -45 2 -18 -2 -37 -7 -44 -11 -14 -1
-36 12 -28 5 3 11 -2 13 -10 3 -11 4 -10 3 2 -1 10 -8 17 -14 16 -7 -2 -12 1
-12 6 0 12 63 61 70 55 3 -3 -6 -14 -19 -25 -13 -11 -21 -22 -18 -26 4 -3 15
5 26 18 16 20 21 22 35 10 12 -10 14 -17 6 -25 -5 -5 -10 -15 -10 -21 0 -5 5
-2 11 8 8 13 15 15 28 7 15 -8 18 -6 16 13 0 12 3 30 8 41 11 23 -7 46 -25 28
-8 -8 -8 -15 2 -27 7 -8 8 -15 2 -15 -5 0 -15 7 -22 15 -11 13 -5 22 36 60 27
25 52 45 56 45 15 0 8 15 -14 29 -13 7 -20 10 -16 6 8 -9 -33 -51 -48 -47 -17
3 -38 -25 -24 -33 5 -3 10 -11 10 -17 0 -6 -6 -6 -15 2 -13 10 -19 10 -35 -5
-11 -10 -20 -14 -20 -9 0 18 81 85 93 78 7 -4 9 -4 5 0 -3 4 2 16 13 27 11 11
17 25 13 31 -5 8 -2 9 9 5 10 -3 17 -2 17 4 0 15 -35 6 -36 -9 -1 -6 -2 -17
-3 -24 0 -6 -4 -9 -7 -6 -3 4 -14 -2 -25 -13 -24 -24 -34 -24 -36 2 -2 16 1
18 11 10 10 -9 15 -8 19 3 6 16 -40 52 -60 48 -7 -2 -13 2 -13 8 0 10 14 14
40 10 11 -1 12 1 4 10 -18 19 -57 -6 -49 -31 5 -14 3 -17 -9 -13 -9 3 -13 10
-10 15 3 5 -3 6 -12 2 -28 -11 -6 15 28 33 16 8 27 18 25 21 -3 3 -16 -2 -29
-11 -25 -18 -42 -21 -33 -6 3 5 1 18 -4 27 -6 10 -11 14 -11 9 0 -5 -7 -3 -15
4 -11 9 -15 9 -15 1 0 -7 -5 -9 -11 -6 -6 4 -8 10 -5 13 3 3 -1 14 -11 24 -9
10 -11 18 -6 18 6 0 16 -6 22 -14 10 -12 15 -11 35 7 26 26 24 38 -3 13 -17
-16 -21 -16 -56 5 -24 15 -33 24 -24 29 7 5 21 0 33 -11 20 -19 39 -22 36 -5
-1 4 7 14 17 22 17 14 16 14 -5 4 -12 -6 -20 -15 -17 -21 11 -17 -12 -9 -30
11 -13 14 -22 17 -35 10 -10 -5 -21 -6 -25 -2 -5 4 -5 1 -1 -5 4 -7 2 -13 -4
-13 -6 0 -10 8 -8 18 2 10 12 16 23 15 11 -1 14 0 8 3 -7 3 -13 12 -13 20 0 8
-4 14 -9 14 -5 0 -8 -7 -7 -16 0 -9 -5 -19 -13 -22 -8 -3 -11 0 -7 6 8 13 -15
62 -38 81 -21 18 -21 7 0 -14 9 -9 13 -19 9 -23 -4 -4 -15 4 -26 17 -19 23
-19 24 5 48 14 14 22 31 19 39 -6 17 -26 14 -29 -4 -1 -7 0 -8 3 -2 2 5 9 7
14 4 12 -7 -36 -57 -57 -60 -8 -1 -14 2 -12 8 2 5 7 9 12 8 10 -2 26 20 26 35
0 6 -4 3 -10 -5 -5 -8 -13 -11 -17 -6 -8 7 3 19 58 59 l24 19 -27 -16 c-34
-20 -44 -20 -28 -1 9 10 9 15 1 15 -6 0 -12 -4 -12 -10 -1 -5 -2 -15 -3 -21 0
-6 -9 -16 -18 -23 -13 -9 -14 -16 -6 -24 8 -8 5 -11 -11 -9 -27 2 -27 11 0 38
l21 21 -21 15 c-12 8 -19 18 -17 22 3 4 -6 8 -20 9 -13 1 -24 -3 -24 -9 0 -5
4 -8 8 -5 11 6 52 -21 52 -35 0 -5 -11 -2 -26 7 -24 16 -26 16 -40 -5 -8 -11
-20 -21 -26 -21 -7 0 -5 7 4 18 16 18 18 59 5 80 -5 7 -2 14 7 18 9 3 13 10
10 16 -3 5 -12 1 -19 -9 -10 -13 -10 -22 -3 -31 6 -7 8 -15 5 -18 -3 -3 -12 3
-19 15 -14 23 -30 29 -22 8 3 -8 -4 -13 -17 -14 -15 -1 -18 1 -10 10 7 9 5 16
-8 24 -14 9 -20 7 -29 -7 -9 -16 -8 -20 7 -25 11 -3 25 -13 32 -21 11 -13 10
-15 -7 -12 -10 1 -24 9 -30 17 -6 8 -17 11 -25 8 -10 -4 -9 -6 4 -6 10 -1 15
-6 12 -11 -4 -6 -11 -8 -16 -5 -5 4 -9 2 -9 -3 0 -5 21 -8 47 -8 25 1 48 -4
50 -10 2 -6 -15 -10 -46 -8 -50 1 -50 1 -47 -27 2 -16 -5 -42 -16 -60 -22 -35
-37 -33 -16 3 16 29 19 59 6 76 -7 8 -7 12 1 12 6 0 11 5 11 11 0 5 -4 8 -9 5
-13 -9 -20 16 -9 36 5 11 15 15 26 11 14 -5 14 -3 -2 9 -17 13 -18 17 -5 35 8
11 18 21 24 21 10 1 21 22 11 22 -3 0 -6 -5 -6 -11z m40 -69 c0 -5 -4 -10 -10
-10 -5 0 -10 5 -10 10 0 6 5 10 10 10 6 0 10 -4 10 -10z m71 -42 c16 -29 -9
-51 -63 -57 -4 -1 -4 -9 -1 -18 6 -16 5 -17 -11 -3 -11 8 -14 16 -7 18 6 2 8
8 5 13 -3 6 5 8 19 5 32 -6 61 22 46 44 -9 12 -10 12 -5 -2 6 -21 -5 -23 -22
-6 -17 17 -15 24 8 25 11 1 25 -7 31 -19z m70 -67 c-12 -21 -41 -47 -41 -36 0
5 8 17 17 27 13 15 14 21 4 31 -10 9 -11 8 -5 -8 4 -11 4 -17 -1 -13 -11 11
-35 -11 -29 -26 4 -9 -5 -13 -28 -12 -26 1 -34 6 -36 23 -3 19 1 21 29 18 24
-3 36 1 46 15 11 16 18 18 34 10 15 -8 17 -15 10 -29z m-165 2 c-2 -16 -4 -32
-5 -36 -3 -20 -17 5 -15 25 1 13 3 26 3 31 1 4 5 7 10 7 6 0 8 -12 7 -27z m42
-39 c12 -8 22 -12 22 -9 0 3 5 3 11 -1 8 -4 7 -9 -2 -15 -18 -12 -32 -11 -24
0 3 5 0 13 -6 17 -7 4 -9 3 -6 -3 4 -6 0 -14 -9 -17 -24 -9 -26 -8 -14 17 11
21 10 21 -4 3 -17 -21 -20 -18 -10 8 8 20 14 20 42 0z m118 -14 c0 -14 -5 -19
-16 -15 -29 12 -35 10 -33 -11 1 -13 -4 -21 -13 -21 -8 0 -13 6 -10 13 3 8 0
11 -9 7 -8 -3 -12 -10 -9 -15 4 -6 -3 -5 -15 1 -15 8 -27 9 -40 1 -25 -13 -28
-13 -28 4 0 11 11 13 39 11 28 -3 44 1 57 14 10 10 25 17 34 15 9 -1 19 2 23
7 9 16 20 10 20 -11z m44 -47 c0 -3 -7 0 -15 7 -16 13 -39 4 -29 -12 4 -6 -1
-8 -16 -3 -18 6 -22 4 -17 -7 3 -8 -1 -15 -8 -15 -10 0 -11 5 -4 18 5 10 6 26
3 36 -3 10 -2 14 3 8 7 -10 14 -11 53 -6 12 1 13 3 1 10 -8 5 -10 14 -6 21 5
8 12 2 21 -20 8 -18 14 -35 14 -37z m-220 42 c0 -8 -4 -15 -10 -15 -5 0 -10 7
-10 15 0 8 5 15 10 15 6 0 10 -7 10 -15z m263 -33 c11 -13 26 -21 33 -18 8 3
14 4 14 2 0 -3 3 -11 6 -20 3 -9 1 -16 -6 -16 -6 0 -9 4 -6 8 3 5 -1 9 -9 10
-8 1 -22 3 -30 4 -9 1 -14 7 -11 14 3 8 0 11 -10 7 -11 -4 -12 -8 -3 -19 7 -8
10 -17 7 -19 -3 -3 -11 1 -18 10 -10 12 -10 18 0 30 9 10 9 15 1 15 -6 0 -11
5 -11 10 0 16 23 7 43 -18z m-273 8 c13 -9 13 -10 0 -10 -12 -1 -11 -3 2 -11
12 -7 24 -6 37 1 22 11 53 3 49 -14 -2 -6 2 -11 7 -11 5 0 9 5 7 11 -1 6 5 11
13 11 8 0 14 -7 13 -16 -2 -10 4 -15 17 -15 11 0 19 5 18 11 -1 6 5 10 15 9 9
0 16 5 15 12 -5 24 15 11 42 -28 15 -22 31 -38 35 -35 4 3 10 -2 14 -10 7 -19
-4 -19 -32 1 -12 8 -20 20 -17 25 3 5 -1 6 -10 3 -11 -4 -14 -2 -9 9 3 8 1 18
-5 22 -7 4 -8 0 -4 -11 5 -13 3 -16 -10 -11 -10 4 -21 -1 -27 -11 -8 -13 -12
-14 -17 -4 -4 10 -8 9 -19 -5 -13 -17 -14 -17 -8 0 7 19 -11 24 -22 5 -4 -6
-3 -8 3 -5 5 3 10 -1 10 -9 0 -10 -4 -11 -11 -4 -5 5 -15 10 -20 10 -6 0 -4
-6 4 -13 20 -15 23 -70 4 -63 -7 3 -16 0 -20 -6 -4 -7 -3 -8 4 -4 7 4 12 2 12
-4 0 -7 -7 -9 -16 -6 -8 3 -12 2 -9 -4 8 -13 -5 -13 -25 0 -15 9 -13 11 13 14
6 1 12 11 12 24 0 12 6 26 14 31 9 6 10 10 2 16 -9 5 -9 10 -1 20 8 9 8 15 0
20 -6 3 -8 11 -5 16 3 5 -1 6 -9 3 -9 -3 -14 -9 -11 -13 7 -12 -28 -6 -55 10
-14 8 -26 22 -26 32 -2 19 4 21 26 7z m342 -93 c5 -10 16 -16 23 -13 9 3 13
-2 12 -15 -1 -11 -9 -19 -20 -19 -10 0 -16 4 -13 8 7 12 -21 50 -47 63 -15 7
-12 2 8 -14 17 -14 27 -28 24 -31 -3 -3 -16 4 -30 17 -13 12 -27 21 -30 20 -4
-1 -5 6 -2 17 5 19 6 19 35 2 16 -9 34 -25 40 -35z m-93 -9 c13 -10 32 -16 42
-13 9 3 20 1 24 -5 3 -6 11 -8 16 -4 5 3 9 2 8 -3 -4 -20 2 -29 21 -29 11 0
20 4 20 8 0 10 21 6 35 -6 6 -5 12 -18 12 -29 2 -15 -1 -16 -12 -7 -8 7 -13
16 -10 19 2 4 -2 8 -10 8 -8 0 -15 -4 -15 -9 0 -5 -6 -6 -12 -1 -17 10 -30 11
-49 2 -26 -13 -32 4 -7 19 13 7 15 11 6 8 -12 -3 -15 -1 -11 10 3 7 0 14 -7
14 -6 0 -9 -3 -7 -7 3 -5 -6 -16 -19 -26 -13 -10 -24 -13 -24 -8 0 5 5 13 10
16 16 10 11 28 -6 21 -21 -8 -50 14 -33 25 6 4 -2 6 -18 5 -17 -1 -37 -7 -45
-14 -8 -6 -17 -10 -19 -7 -3 2 -5 -5 -5 -16 0 -18 2 -19 12 -4 7 9 15 12 18 7
9 -15 -19 -33 -39 -26 -13 5 -14 9 -3 16 10 7 10 11 1 15 -10 3 -9 9 4 21 9 9
21 17 27 18 6 0 17 2 24 2 7 1 10 7 6 13 -8 14 31 -6 65 -33z m-239 13 c0 -4
-7 -8 -15 -8 -16 0 -20 9 -9 20 8 8 24 -1 24 -12z m204 -32 c14 -11 31 -17 38
-13 10 5 10 4 1 -6 -15 -16 -56 -21 -64 -7 -4 5 -9 5 -13 -2 -4 -6 -2 -11 4
-11 6 0 9 -4 6 -9 -3 -4 -21 -7 -41 -5 -19 1 -37 -2 -40 -7 -4 -5 2 -6 12 -2
16 6 16 5 4 -10 -8 -10 -11 -20 -7 -24 3 -3 6 0 6 7 0 7 3 10 7 6 4 -4 8 -15
8 -24 0 -11 7 -16 20 -14 17 2 18 1 5 -8 -13 -10 -13 -11 0 -7 8 2 14 10 13
16 -3 13 -1 13 22 5 13 -5 14 -8 3 -15 -9 -6 -9 -9 -1 -9 6 0 15 5 18 10 3 6
11 10 18 10 8 0 8 -3 0 -11 -6 -6 -9 -18 -6 -26 5 -14 3 -14 -18 0 -13 8 -39
14 -57 13 -18 -2 -37 3 -43 11 -9 9 -8 13 0 13 7 0 5 9 -5 25 -13 20 -14 28
-4 40 7 9 20 13 30 10 20 -6 57 30 40 40 -11 7 -5 25 9 25 5 0 20 -9 35 -21z
m196 -3 c0 -11 -19 -15 -25 -6 -3 5 1 10 9 10 9 0 16 -2 16 -4z m-122 -33 c-1
-5 4 -19 11 -32 10 -18 10 -22 0 -16 -8 6 -10 4 -4 -5 5 -8 4 -11 -3 -6 -6 4
-9 14 -6 24 5 14 4 15 -5 2 -6 -8 -23 -15 -38 -16 -22 0 -27 -4 -25 -19 3 -18
2 -18 -22 -1 -15 9 -26 12 -26 6 0 -6 -4 -9 -9 -6 -5 4 -11 3 -14 -1 -2 -5 -2
-3 -1 4 2 7 -2 15 -8 19 -7 4 -6 9 3 15 19 12 29 11 29 -2 0 -5 -6 -7 -12 -3
-7 4 -9 3 -5 -1 13 -15 39 -15 34 0 -8 20 14 37 30 24 10 -9 13 -8 13 1 0 9 3
10 14 1 10 -9 16 -8 26 4 13 16 21 20 18 8z m48 -38 c1 -15 -2 -22 -9 -18 -5
3 -7 1 -4 -4 4 -6 0 -14 -8 -17 -12 -4 -13 -2 -6 13 6 10 7 21 3 25 -3 4 0 11
8 16 8 6 15 10 15 10 0 0 1 -11 1 -25z m47 12 c7 7 37 -15 37 -28 0 -5 -7 -6
-15 -3 -8 4 -12 11 -8 18 5 8 3 8 -8 0 -16 -12 -39 -13 -39 -1 0 4 0 12 0 18
0 8 4 9 13 0 8 -6 17 -8 20 -4z m-337 -34 c-10 -10 -19 5 -10 18 6 11 8 11 12
0 2 -7 1 -15 -2 -18z m39 -3 c-5 -8 -11 -8 -17 -2 -6 6 -7 16 -3 22 5 8 11 8
17 2 6 -6 7 -16 3 -22z m390 22 c14 -9 17 -55 4 -46 -5 3 -8 0 -7 -7 2 -6 -3
-14 -10 -16 -8 -3 -10 1 -6 11 6 14 -5 21 -28 17 -13 -2 -9 17 8 33 17 18 24
19 39 8z m-225 -24 c0 25 49 -5 50 -30 0 -12 -24 -5 -36 11 -9 11 -11 11 -11
-3 0 -9 5 -16 11 -16 6 0 4 -5 -4 -10 -10 -6 -11 -10 -2 -10 6 0 12 -5 12 -11
0 -6 -8 -8 -17 -5 -15 5 -15 4 1 -9 11 -8 24 -15 28 -15 5 0 4 -8 -1 -19 -6
-10 -9 -20 -7 -22 3 -2 -11 -5 -31 -5 -25 -1 -32 1 -23 10 6 6 15 12 21 12 5
1 14 2 21 3 7 1 4 8 -6 20 -10 11 -23 17 -30 15 -7 -3 -19 2 -26 11 -8 9 -8
15 -2 15 6 0 14 -5 17 -10 9 -15 27 -1 21 16 -3 7 -1 16 5 20 6 4 3 14 -8 27
-16 19 -16 20 0 8 9 -8 17 -9 17 -3z m137 -9 c-4 -24 -17 -37 -18 -18 -1 8 -1
18 0 23 1 5 -5 4 -13 -3 -9 -7 -13 -18 -9 -24 4 -6 0 -8 -10 -4 -18 7 -35 -11
-21 -22 14 -10 16 -33 3 -29 -14 5 -21 39 -11 54 11 17 50 41 67 41 8 0 13 -8
12 -18z m18 1 c-3 -5 -1 -10 4 -10 6 0 11 -5 11 -11 0 -5 -4 -8 -9 -4 -5 3
-13 0 -17 -6 -4 -7 -3 -9 3 -6 7 4 10 -3 9 -18 0 -14 -4 -25 -7 -25 -10 0 -19
42 -11 54 4 6 7 14 8 19 3 15 4 17 10 17 3 0 2 -4 -1 -10z m35 -30 c-8 -5 -7
-9 6 -14 9 -4 22 -2 27 3 13 13 57 -8 57 -28 -1 -14 -3 -13 -14 2 -12 15 -14
16 -20 2 -3 -8 -3 -21 0 -28 3 -8 -3 -13 -16 -13 -11 0 -20 4 -20 8 0 4 5 8
12 8 6 0 8 3 5 7 -4 3 -2 12 4 20 9 9 8 13 0 13 -6 0 -11 -5 -11 -11 0 -6 -5
-7 -12 -2 -19 11 -39 13 -32 2 3 -5 0 -9 -5 -9 -14 0 -14 3 0 34 7 14 16 23
22 19 5 -3 4 -8 -3 -13z m-147 -14 c3 -8 0 -19 -7 -25 -10 -8 -12 -5 -10 12 4
33 8 37 17 13z m82 -4 c3 -10 -1 -22 -10 -28 -14 -11 -11 -12 19 -10 20 2 42
9 51 16 17 14 16 15 20 -27 1 -18 -1 -30 -5 -28 -5 3 -16 -2 -24 -11 -9 -8
-16 -11 -16 -5 0 5 -8 10 -17 10 -43 1 -51 5 -51 25 0 25 -5 47 -14 61 -3 6 4
11 17 11 14 1 26 -5 30 -14z m220 -11 c12 -8 14 -11 4 -8 -9 3 -22 0 -28 -6
-18 -18 -38 8 -21 28 7 9 16 12 19 7 3 -5 15 -14 26 -21z m-65 -29 c53 3 63
-24 23 -62 -22 -19 -31 -50 -16 -50 3 0 14 7 24 16 19 17 43 10 36 -10 -6 -14
28 -58 37 -49 3 4 6 1 6 -5 0 -20 -15 -13 -44 19 -27 29 -28 30 -53 14 -13 -9
-28 -14 -31 -10 -4 3 0 10 7 14 9 6 10 11 2 15 -7 5 -8 13 -1 25 6 12 5 22 -3
30 -6 6 -12 26 -13 43 -1 17 1 26 5 20 3 -6 13 -10 21 -10z m130 -43 c-34 -28
-52 -33 -51 -14 1 6 7 10 14 10 15 1 56 24 42 25 -5 0 -3 4 5 10 30 19 24 -3
-10 -31z m-304 -11 c9 5 27 2 21 -4 -3 -4 4 -15 16 -24 12 -10 18 -22 14 -27
-5 -4 -13 0 -18 10 -6 9 -17 17 -26 17 -10 0 -13 6 -9 16 3 9 2 12 -5 9 -11
-8 -39 12 -39 28 0 5 9 2 21 -9 12 -10 23 -18 25 -16z m126 20 c-8 -8 -9 -15
-1 -25 7 -7 8 -14 3 -14 -5 -1 -19 -3 -32 -4 -12 -1 -25 -5 -29 -9 -8 -7 -33
13 -33 26 0 6 6 6 14 -1 11 -9 18 -8 30 4 9 9 16 12 16 6 0 -6 5 -11 10 -11 6
0 9 3 9 8 -3 19 2 32 13 32 9 0 9 -3 0 -12z m168 -78 c0 -5 -4 -10 -10 -10 -5
0 -10 5 -10 10 0 6 5 10 10 10 6 0 10 -4 10 -10z"/>
<path d="M7220 1960 c0 -5 5 -10 11 -10 5 0 7 5 4 10 -3 6 -8 10 -11 10 -2 0
-4 -4 -4 -10z"/>
<path d="M7154 1854 c-18 -14 -18 -15 4 -4 12 6 22 13 22 15 0 8 -5 6 -26 -11z"/>
<path d="M7190 1760 c0 -5 5 -10 10 -10 6 0 10 5 10 10 0 6 -4 10 -10 10 -5 0
-10 -4 -10 -10z"/>
<path d="M7307 1764 c6 -15 23 -19 23 -5 0 5 -7 11 -14 14 -10 4 -13 1 -9 -9z"/>
<path d="M7316 1711 c-4 -5 -2 -12 3 -15 5 -4 12 -2 15 3 4 5 2 12 -3 15 -5 4
-12 2 -15 -3z"/>
<path d="M7350 1700 c0 -5 5 -10 10 -10 6 0 10 5 10 10 0 6 -4 10 -10 10 -5 0
-10 -4 -10 -10z"/>
<path d="M7571 1681 c-10 -6 -9 -10 3 -14 8 -3 18 -2 21 3 8 13 -9 20 -24 11z"/>
<path d="M7476 1607 c3 -10 9 -15 12 -12 3 3 0 11 -7 18 -10 9 -11 8 -5 -6z"/>
<path d="M7544 1565 c-4 -10 -11 -12 -23 -6 -10 6 -23 6 -32 0 -15 -9 -9 -11
31 -11 35 0 41 2 36 11 -4 5 0 12 6 14 10 4 10 6 0 6 -7 1 -15 -6 -18 -14z"/>
<path d="M7669 1551 c6 -10 7 -22 3 -26 -4 -5 -1 -5 6 -1 9 5 9 12 2 27 -6 10
-13 19 -16 19 -2 0 0 -8 5 -19z"/>
<path d="M7635 1551 c-3 -6 -1 -11 5 -11 6 0 9 -4 5 -9 -3 -5 -1 -12 4 -16 6
-3 8 4 6 16 -5 27 -11 33 -20 20z"/>
<path d="M6865 2140 c-3 -6 1 -7 9 -4 18 7 21 14 7 14 -6 0 -13 -4 -16 -10z"/>
<path d="M6993 2144 c3 -3 2 -17 -3 -30 -7 -17 -6 -22 3 -18 15 5 19 54 4 54
-6 0 -8 -3 -4 -6z"/>
<path d="M7299 2136 c10 -11 8 -17 -6 -25 -28 -16 -9 -13 23 4 20 10 23 15 12
15 -10 0 -18 5 -18 10 0 6 -5 10 -11 10 -8 0 -8 -4 0 -14z"/>
<path d="M7353 2132 c0 -11 3 -19 6 -17 2 3 9 -2 15 -9 8 -10 17 -11 31 -5
l20 9 -20 -3 c-12 -2 -27 7 -37 22 -16 24 -17 24 -15 3z"/>
<path d="M7270 2130 c0 -5 5 -10 11 -10 5 0 7 5 4 10 -3 6 -8 10 -11 10 -2 0
-4 -4 -4 -10z"/>
<path d="M7463 2122 c10 -10 14 -22 10 -27 -5 -4 -2 -5 5 -1 11 6 10 12 -4 27
-9 10 -19 19 -22 19 -3 0 2 -8 11 -18z"/>
<path d="M7514 2120 c0 -13 4 -16 10 -10 7 7 7 13 0 20 -6 6 -10 3 -10 -10z"/>
<path d="M7027 2115 c3 -8 9 -12 14 -9 12 7 11 11 -5 17 -10 4 -13 1 -9 -8z"/>
<path d="M7126 2115 c-11 -8 -17 -17 -14 -21 4 -3 16 4 27 15 24 24 15 28 -13
6z"/>
<path d="M6855 2100 c3 -5 8 -10 11 -10 2 0 4 5 4 10 0 6 -5 10 -11 10 -5 0
-7 -4 -4 -10z"/>
<path d="M7330 2103 c0 -6 5 -15 10 -18 8 -5 7 -11 0 -21 -7 -7 -10 -19 -7
-26 3 -8 6 -6 6 5 1 10 5 16 11 12 5 -3 6 -13 3 -22 -6 -15 -5 -16 9 -3 14 13
14 16 2 23 -8 5 -12 13 -9 18 4 5 11 6 17 3 7 -5 8 -2 4 5 -5 7 -10 10 -14 7
-3 -3 -11 2 -18 12 -8 9 -14 12 -14 5z"/>
<path d="M7430 2106 c0 -2 7 -7 16 -10 8 -3 12 -2 9 4 -6 10 -25 14 -25 6z"/>
<path d="M6753 2085 c0 -8 4 -12 9 -9 5 3 6 10 3 15 -9 13 -12 11 -12 -6z"/>
<path d="M7310 2089 c0 -5 -4 -8 -8 -5 -5 3 -9 -1 -9 -9 0 -8 4 -15 9 -15 4 0
8 5 8 11 0 5 4 7 10 4 6 -3 7 1 4 9 -7 18 -14 21 -14 5z"/>
<path d="M6960 2080 c8 -5 20 -10 25 -10 6 0 3 5 -5 10 -8 5 -19 10 -25 10 -5
0 -3 -5 5 -10z"/>
<path d="M7266 2075 c4 -8 8 -15 10 -15 2 0 4 7 4 15 0 8 -4 15 -10 15 -5 0
-7 -7 -4 -15z"/>
<path d="M7400 2075 c-19 -22 -8 -25 13 -3 9 10 13 18 8 18 -5 0 -14 -7 -21
-15z"/>
<path d="M7510 2081 c0 -6 4 -13 10 -16 6 -3 7 1 4 9 -7 18 -14 21 -14 7z"/>
<path d="M7406 2043 c-6 -14 -5 -15 5 -6 7 7 10 15 7 18 -3 3 -9 -2 -12 -12z"/>
<path d="M6939 2033 c-12 -16 -12 -17 2 -6 9 7 20 9 24 5 5 -4 5 -1 1 6 -9 16
-11 15 -27 -5z"/>
<path d="M7435 2040 c3 -5 8 -10 11 -10 2 0 4 5 4 10 0 6 -5 10 -11 10 -5 0
-7 -4 -4 -10z"/>
<path d="M7516 2038 c3 -5 10 -6 15 -3 13 9 11 12 -6 12 -8 0 -12 -4 -9 -9z"/>
<path d="M7555 2041 c-3 -5 -2 -12 3 -15 5 -3 9 1 9 9 0 17 -3 19 -12 6z"/>
<path d="M7679 2033 c-13 -16 -12 -17 4 -4 16 13 21 21 13 21 -2 0 -10 -8 -17
-17z"/>
<path d="M6876 2027 c3 -10 9 -15 12 -12 3 3 0 11 -7 18 -10 9 -11 8 -5 -6z"/>
<path d="M6810 2019 c0 -5 5 -7 10 -4 6 3 10 8 10 11 0 2 -4 4 -10 4 -5 0 -10
-5 -10 -11z"/>
<path d="M6996 2013 c-6 -14 -5 -15 5 -6 7 7 10 15 7 18 -3 3 -9 -2 -12 -12z"/>
<path d="M7027 2009 c-9 -6 -14 -15 -11 -21 5 -7 1 -9 -9 -5 -10 3 -17 2 -17
-4 0 -6 8 -9 18 -7 9 2 16 10 14 17 -2 9 3 11 13 7 9 -3 14 -2 10 3 -3 5 1 12
7 14 7 3 9 6 3 6 -5 0 -18 -4 -28 -10z"/>
<path d="M7434 1993 c2 -9 8 -18 15 -19 6 -1 7 0 1 3 -5 2 -8 9 -5 13 3 5 1
11 -4 14 -5 4 -8 -2 -7 -11z"/>
<path d="M7506 1998 c3 -4 9 -8 15 -8 5 0 9 4 9 8 0 5 -7 9 -15 9 -8 0 -12 -4
-9 -9z"/>
<path d="M6910 1959 c0 -3 9 -9 19 -12 13 -3 18 0 15 7 -5 13 -34 18 -34 5z"/>
<path d="M6971 1954 c0 -11 3 -14 6 -6 3 7 2 16 -1 19 -3 4 -6 -2 -5 -13z"/>
<path d="M7474 1956 c1 -8 5 -18 8 -22 4 -3 5 1 4 10 -1 8 -5 18 -8 22 -4 3
-5 -1 -4 -10z"/>
<path d="M7438 1943 c7 -3 16 -2 19 1 4 3 -2 6 -13 5 -11 0 -14 -3 -6 -6z"/>
<path d="M6893 1927 c0 -8 6 -14 14 -14 9 0 10 4 2 14 -6 7 -12 13 -14 13 -1
0 -2 -6 -2 -13z"/>
<path d="M7635 1929 c-4 -6 -5 -12 -2 -15 2 -3 7 2 10 11 7 17 1 20 -8 4z"/>
<path d="M6953 1916 c0 -8 6 -12 14 -9 7 3 10 9 7 14 -8 14 -21 11 -21 -5z"/>
<path d="M7000 1914 c-11 -12 -10 -18 5 -32 10 -9 15 -11 11 -4 -4 6 -2 12 3
12 6 0 11 5 11 11 0 8 -5 8 -15 -1 -18 -15 -20 1 -3 18 7 7 9 12 6 12 -3 0
-11 -7 -18 -16z"/>
<path d="M7428 1918 c7 -7 16 -7 28 0 14 8 13 10 -10 10 -18 0 -24 -4 -18 -10z"/>
<path d="M7520 1916 c0 -8 4 -17 9 -20 5 -4 7 3 4 14 -6 23 -13 26 -13 6z"/>
<path d="M7599 1923 c0 -5 -2 -16 -4 -26 -2 -11 -1 -16 3 -13 8 8 14 46 7 46
-3 0 -5 -3 -6 -7z"/>
<path d="M7676 1918 c3 -5 10 -6 15 -3 13 9 11 12 -6 12 -8 0 -12 -4 -9 -9z"/>
<path d="M6815 1900 c3 -5 8 -10 11 -10 2 0 4 5 4 10 0 6 -5 10 -11 10 -5 0
-7 -4 -4 -10z"/>
<path d="M7455 1900 c-8 -13 3 -30 18 -29 9 0 9 2 0 5 -7 3 -9 12 -6 20 6 16
-3 19 -12 4z"/>
<path d="M7559 1893 c-13 -16 -12 -17 4 -4 16 13 21 21 13 21 -2 0 -10 -8 -17
-17z"/>
<path d="M6894 1881 c0 -11 5 -17 13 -14 10 4 11 9 2 19 -15 18 -15 18 -15 -5z"/>
<path d="M6767 1879 c7 -7 15 -10 18 -7 3 3 -2 9 -12 12 -14 6 -15 5 -6 -5z"/>
<path d="M6930 1880 c0 -5 11 -7 25 -4 17 3 24 0 23 -8 -2 -7 8 -14 22 -15 24
-2 24 -2 2 5 -13 4 -22 11 -20 17 2 5 -9 11 -24 12 -16 1 -28 -2 -28 -7z"/>
<path d="M7490 1880 c0 -5 5 -10 10 -10 6 0 10 5 10 10 0 6 -4 10 -10 10 -5 0
-10 -4 -10 -10z"/>
<path d="M7534 1859 c-4 -7 -3 -9 4 -5 5 3 13 0 15 -6 4 -9 6 -10 6 -1 1 17
-16 25 -25 12z"/>
<path d="M7590 1861 c0 -10 28 -41 37 -41 3 0 -1 8 -10 18 -10 10 -14 22 -10
25 3 4 1 7 -5 7 -7 0 -12 -4 -12 -9z"/>
<path d="M7510 1851 c0 -10 19 -25 25 -20 1 2 -3 10 -11 17 -8 7 -14 8 -14 3z"/>
<path d="M6881 1836 c-9 -11 -9 -16 1 -22 7 -4 10 -4 6 1 -4 4 -3 14 3 22 6 7
9 13 6 13 -2 0 -10 -6 -16 -14z"/>
<path d="M6950 1830 c-8 -15 -8 -18 3 -14 8 3 14 11 14 19 0 20 -4 19 -17 -5z"/>
<path d="M7680 1840 c-12 -7 -10 -9 7 -7 12 0 19 5 17 9 -6 10 -6 10 -24 -2z"/>
<path d="M6815 1820 c3 -5 8 -10 11 -10 2 0 4 5 4 10 0 6 -5 10 -11 10 -5 0
-7 -4 -4 -10z"/>
<path d="M7037 1823 c-10 -10 -8 -25 2 -19 5 4 11 0 14 -6 2 -7 7 -11 10 -8 3
3 0 13 -7 22 -7 10 -16 15 -19 11z"/>
<path d="M7550 1820 c0 -5 5 -10 10 -10 6 0 10 5 10 10 0 6 -4 10 -10 10 -5 0
-10 -4 -10 -10z"/>
<path d="M6976 1796 c4 -11 -1 -13 -18 -10 -21 4 -21 3 -3 -5 11 -4 23 -7 28
-4 10 6 9 33 -3 33 -5 0 -7 -6 -4 -14z"/>
<path d="M7615 1800 c-3 -5 -1 -10 4 -10 6 0 11 5 11 10 0 6 -2 10 -4 10 -3 0
-8 -4 -11 -10z"/>
<path d="M7655 1799 c-3 -4 2 -6 10 -5 21 3 28 13 10 13 -9 0 -18 -4 -20 -8z"/>
<path d="M6900 1780 c-8 -5 -10 -10 -5 -10 6 0 17 5 25 10 8 5 11 10 5 10 -5
0 -17 -5 -25 -10z"/>
<path d="M7675 1780 c-11 -5 -14 -9 -7 -9 7 -1 11 -5 8 -9 -3 -5 0 -9 7 -9 7
0 13 9 13 19 0 10 0 18 -1 17 0 0 -9 -4 -20 -9z"/>
<path d="M7626 1765 c-11 -8 -15 -15 -9 -15 6 0 16 7 23 15 16 19 11 19 -14 0z"/>
<path d="M6993 1755 c0 -8 4 -12 9 -9 4 3 8 9 8 15 0 5 -4 9 -8 9 -5 0 -9 -7
-9 -15z"/>
<path d="M7733 1755 c0 -8 4 -12 9 -9 5 3 6 10 3 15 -9 13 -12 11 -12 -6z"/>
<path d="M7630 1735 c-12 -15 -7 -45 7 -45 5 0 14 9 21 20 15 25 4 27 -14 3
-12 -17 -13 -17 -14 -1 0 9 8 22 18 27 9 6 12 11 6 11 -6 0 -17 -7 -24 -15z"/>
<path d="M7590 1730 c0 -5 5 -10 10 -10 6 0 10 5 10 10 0 6 -4 10 -10 10 -5 0
-10 -4 -10 -10z"/>
<path d="M7710 1715 c0 -8 4 -15 10 -15 5 0 7 7 4 15 -4 8 -8 15 -10 15 -2 0
-4 -7 -4 -15z"/>
<path d="M7799 1713 c-12 -16 -12 -17 2 -6 9 7 20 9 24 5 5 -4 5 -1 1 6 -9 16
-11 15 -27 -5z"/>
<path d="M6950 1710 c-11 -7 -11 -10 -2 -10 7 0 10 -4 7 -10 -4 -6 1 -7 11 -3
11 4 13 8 6 11 -7 2 -10 8 -6 13 7 11 3 11 -16 -1z"/>
<path d="M7675 1710 c-3 -5 -1 -10 4 -10 6 0 11 5 11 10 0 6 -2 10 -4 10 -3 0
-8 -4 -11 -10z"/>
<path d="M7765 1699 c-4 -6 -5 -12 -2 -15 2 -3 7 2 10 11 7 17 1 20 -8 4z"/>
<path d="M7704 1678 c9 -5 23 -5 32 0 12 6 7 9 -16 9 -23 0 -28 -3 -16 -9z"/>
<path d="M7794 1675 c1 -8 6 -18 11 -22 4 -5 5 -2 0 6 -6 11 -4 13 8 8 23 -9
21 0 -2 13 -15 7 -19 7 -17 -5z"/>
<path d="M7032 1671 c-11 -6 -9 -9 6 -13 15 -4 19 -2 15 8 -6 16 -4 16 -21 5z"/>
<path d="M6846 1658 c3 -5 10 -6 15 -3 13 9 11 12 -6 12 -8 0 -12 -4 -9 -9z"/>
<path d="M7751 1649 c8 -16 39 -17 39 -2 0 3 -7 2 -16 -1 -11 -4 -15 -2 -11 7
3 8 -1 14 -8 14 -10 0 -11 -5 -4 -18z"/>
<path d="M7930 1660 c0 -5 5 -10 11 -10 5 0 7 5 4 10 -3 6 -8 10 -11 10 -2 0
-4 -4 -4 -10z"/>
<path d="M7716 1644 c-4 -10 -4 -15 0 -12 3 4 15 -3 26 -15 17 -19 18 -19 9
-2 -22 43 -28 48 -35 29z"/>
<path d="M7000 1640 c-8 -5 -10 -10 -5 -10 6 0 17 5 25 10 8 5 11 10 5 10 -5
0 -17 -5 -25 -10z"/>
<path d="M7070 1640 c0 -6 7 -10 15 -10 8 0 15 2 15 4 0 2 -7 6 -15 10 -8 3
-15 1 -15 -4z"/>
<path d="M7832 1631 c7 -9 13 -18 15 -20 1 -2 1 5 0 16 0 11 -7 20 -14 20 -10
0 -10 -4 -1 -16z"/>
<path d="M7110 1620 c0 -5 5 -10 10 -10 6 0 10 5 10 10 0 6 -4 10 -10 10 -5 0
-10 -4 -10 -10z"/>
<path d="M7884 1615 c-4 -8 -10 -12 -15 -9 -5 3 -6 -3 -2 -12 4 -11 8 -13 11
-6 2 7 7 10 11 8 4 -3 7 4 7 15 0 23 -5 24 -12 4z"/>
<path d="M6875 1611 c-3 -5 -2 -12 3 -15 5 -3 9 1 9 9 0 17 -3 19 -12 6z"/>
<path d="M7817 1606 c-4 -10 -3 -15 3 -11 6 3 10 1 10 -6 0 -7 3 -10 6 -6 3 3
2 13 -4 22 -8 16 -9 16 -15 1z"/>
<path d="M7088 1603 c6 -2 10 -9 7 -13 -3 -5 0 -12 6 -16 8 -4 9 -3 5 4 -4 7
-1 12 6 12 9 0 9 3 -2 10 -8 5 -19 9 -25 9 -5 0 -4 -3 3 -6z"/>
<path d="M7210 1597 c0 -15 20 -37 33 -37 5 0 1 7 -7 16 -9 8 -14 20 -11 25 4
5 1 9 -4 9 -6 0 -11 -6 -11 -13z"/>
<path d="M7970 1600 c0 -5 5 -10 11 -10 5 0 7 5 4 10 -3 6 -8 10 -11 10 -2 0
-4 -4 -4 -10z"/>
<path d="M7030 1596 c0 -2 9 -6 20 -9 11 -3 18 -1 14 4 -5 9 -34 13 -34 5z"/>
<path d="M7260 1581 c0 -6 5 -11 11 -11 5 0 7 -4 4 -10 -3 -6 1 -7 10 -4 9 4
15 7 13 8 -2 1 -11 8 -20 15 -12 9 -18 10 -18 2z"/>
<path d="M7940 1586 c0 -2 8 -10 18 -17 15 -13 16 -12 3 4 -13 16 -21 21 -21
13z"/>
<path d="M7073 1552 c0 -10 7 -19 14 -19 9 0 10 4 3 12 -5 7 -7 15 -3 18 3 4
1 7 -5 7 -6 0 -10 -8 -9 -18z"/>
<path d="M7193 1548 c-2 -18 0 -20 7 -8 12 18 13 30 2 30 -4 0 -9 -10 -9 -22z"/>
<path d="M7293 1542 c-27 -32 -29 -42 -7 -42 9 0 12 -5 8 -12 -5 -7 -3 -8 6
-3 10 6 10 10 -3 20 -14 10 -14 14 5 33 12 12 20 23 17 26 -2 2 -14 -8 -26
-22z"/>
<path d="M7846 1559 c2 -4 0 -10 -6 -14 -5 -3 -10 -10 -10 -16 0 -5 9 0 20 11
24 24 24 27 5 27 -8 0 -12 -4 -9 -8z"/>
<path d="M7915 1560 c3 -5 8 -10 11 -10 2 0 4 5 4 10 0 6 -5 10 -11 10 -5 0
-7 -4 -4 -10z"/>
<path d="M7990 1566 c0 -2 7 -7 16 -10 8 -3 12 -2 9 4 -6 10 -25 14 -25 6z"/>
<path d="M7150 1550 c-8 -5 -10 -10 -5 -10 6 0 17 5 25 10 8 5 11 10 5 10 -5
0 -17 -5 -25 -10z"/>
<path d="M7888 1553 c6 -2 9 -10 6 -15 -4 -7 -2 -8 5 -4 13 9 5 26 -12 25 -9
0 -8 -2 1 -6z"/>
<path d="M7214 1538 c-7 -11 5 -28 19 -27 9 0 9 2 0 6 -20 7 -15 19 7 20 13 1
18 -2 14 -9 -4 -7 -2 -8 5 -4 6 4 9 11 6 16 -6 10 -45 9 -51 -2z"/>
<path d="M7965 1539 c-4 -6 -5 -12 -2 -15 2 -3 7 2 10 11 7 17 1 20 -8 4z"/>
<path d="M7870 1532 c0 -8 -5 -10 -12 -6 -7 4 -2 -7 11 -24 20 -29 41 -46 26
-22 -3 6 -1 10 4 10 6 0 11 5 11 11 0 8 -6 7 -17 -2 -14 -12 -16 -12 -11 2 3
9 2 22 -3 30 -7 11 -9 11 -9 1z"/>
<path d="M7915 1531 c-3 -5 -2 -12 3 -15 5 -3 9 1 9 9 0 17 -3 19 -12 6z"/>
<path d="M8015 1530 c-4 -6 -10 -8 -15 -5 -5 3 -11 1 -14 -4 -8 -13 22 -7 36
7 7 7 9 12 6 12 -4 0 -10 -5 -13 -10z"/>
<path d="M7133 1513 c0 -9 4 -10 14 -2 7 6 13 12 13 14 0 1 -6 2 -13 2 -8 0
-14 -6 -14 -14z"/>
<path d="M7810 1517 c0 -9 -3 -16 -7 -16 -26 4 -35 -2 -24 -15 15 -18 22 -56
10 -56 -5 0 -9 -5 -9 -11 0 -8 4 -8 14 0 11 9 14 6 14 -14 0 -26 -13 -34 -21
-12 -4 9 -6 9 -6 0 -1 -16 14 -24 33 -17 9 3 13 11 9 17 -10 16 -11 47 -2 47
4 0 16 -8 25 -17 17 -17 18 -17 11 0 -5 13 -3 17 5 14 7 -2 12 -15 11 -28 -1
-15 0 -17 3 -6 3 9 10 15 15 12 5 -4 9 -3 9 2 0 4 -16 18 -35 31 -19 12 -35
27 -35 33 0 6 20 -4 44 -21 37 -27 47 -30 63 -21 17 11 16 12 -3 6 -22 -6 -99
46 -87 59 3 3 3 6 -2 6 -4 0 -13 -8 -20 -17 -10 -14 -9 -20 9 -35 11 -9 15
-17 9 -18 -16 0 -53 36 -53 51 0 5 5 7 10 4 11 -7 26 22 16 32 -3 4 -6 -1 -6
-10z"/>
<path d="M7937 1511 c-4 -17 -3 -21 5 -13 5 5 8 16 6 23 -3 8 -7 3 -11 -10z"/>
<path d="M7194 1495 c0 -14 4 -25 8 -25 4 0 7 9 5 20 -5 29 -13 33 -13 5z"/>
<path d="M8029 1503 c-13 -16 -12 -17 4 -4 9 7 17 15 17 17 0 8 -8 3 -21 -13z"/>
<path d="M7316 1485 c-3 -8 -1 -15 4 -15 6 0 10 7 10 15 0 8 -2 15 -4 15 -2 0
-6 -7 -10 -15z"/>
<path d="M7350 1491 c0 -10 19 -25 25 -20 1 2 -3 10 -11 17 -8 7 -14 8 -14 3z"/>
<path d="M7095 1480 c3 -5 8 -10 11 -10 2 0 4 5 4 10 0 6 -5 10 -11 10 -5 0
-7 -4 -4 -10z"/>
<path d="M7234 1468 c-19 -23 -19 -23 2 -5 11 9 24 14 27 10 4 -3 7 -1 7 5 0
19 -15 14 -36 -10z"/>
<path d="M7430 1480 c-13 -8 -12 -10 3 -10 9 0 17 5 17 10 0 12 -1 12 -20 0z"/>
<path d="M7950 1475 c0 -8 2 -15 4 -15 2 0 6 7 10 15 3 8 1 15 -4 15 -6 0 -10
-7 -10 -15z"/>
<path d="M7910 1470 c0 -5 5 -10 10 -10 6 0 10 5 10 10 0 6 -4 10 -10 10 -5 0
-10 -4 -10 -10z"/>
<path d="M7995 1470 c6 -10 4 -12 -11 -6 -15 6 -17 5 -6 -5 9 -9 15 -10 23 -2
8 8 7 13 -2 18 -8 6 -10 4 -4 -5z"/>
<path d="M8074 1445 c0 -19 3 -35 7 -35 8 0 6 56 -2 64 -3 3 -5 -10 -5 -29z"/>
<path d="M7146 1458 c3 -4 9 -8 15 -8 5 0 9 4 9 8 0 5 -7 9 -15 9 -8 0 -12 -4
-9 -9z"/>
<path d="M7279 1468 c-7 -23 -5 -39 4 -45 7 -3 9 -3 5 2 -4 4 0 14 10 22 16
12 16 13 -2 6 -13 -4 -17 -3 -12 5 4 7 5 12 2 12 -3 0 -6 -1 -7 -2z"/>
<path d="M7335 1460 c-3 -5 -3 -10 1 -10 3 0 -2 -8 -13 -17 -10 -10 -13 -14
-6 -10 6 5 18 5 24 1 7 -4 9 -3 5 4 -3 5 0 13 6 15 10 4 10 6 0 6 -7 1 -10 6
-7 11 3 6 4 10 1 10 -3 0 -8 -4 -11 -10z"/>
<path d="M7390 1460 c0 -5 5 -10 10 -10 6 0 10 5 10 10 0 6 -4 10 -10 10 -5 0
-10 -4 -10 -10z"/>
<path d="M8020 1466 c0 -2 9 -6 20 -9 11 -3 18 -1 14 4 -5 9 -34 13 -34 5z"/>
<path d="M8110 1460 c0 -5 5 -10 11 -10 5 0 7 5 4 10 -3 6 -8 10 -11 10 -2 0
-4 -4 -4 -10z"/>
<path d="M7428 1443 c6 -2 10 -9 7 -14 -4 -5 1 -6 10 -2 13 5 14 7 3 14 -7 5
-17 8 -23 8 -5 0 -4 -3 3 -6z"/>
<path d="M7490 1440 c8 -5 20 -10 25 -10 6 0 3 5 -5 10 -8 5 -19 10 -25 10 -5
0 -3 -5 5 -10z"/>
<path d="M8010 1438 c0 -4 4 -8 9 -8 6 0 12 4 15 8 3 5 -1 9 -9 9 -8 0 -15 -4
-15 -9z"/>
<path d="M7145 1420 c-3 -6 1 -7 9 -4 18 7 21 14 7 14 -6 0 -13 -4 -16 -10z"/>
<path d="M7470 1420 c0 -5 5 -10 10 -10 6 0 10 5 10 10 0 6 -4 10 -10 10 -5 0
-10 -4 -10 -10z"/>
<path d="M7535 1420 c3 -5 14 -10 23 -10 15 0 15 2 2 10 -20 13 -33 13 -25 0z"/>
<path d="M7584 1415 c-3 -8 -4 -20 -1 -27 3 -7 6 -3 6 10 1 13 5 20 11 17 6
-3 10 -1 10 4 0 16 -20 13 -26 -4z"/>
<path d="M7958 1422 c13 -4 23 -11 22 -17 -1 -5 4 -11 12 -13 11 -3 11 -2 0 6
-8 5 -12 13 -10 18 1 5 -8 10 -22 11 -24 2 -24 2 -2 -5z"/>
<path d="M8033 1422 c-9 -6 -7 -11 7 -20 12 -7 20 -8 20 -2 0 5 -5 10 -11 10
-5 0 -7 5 -4 10 7 12 4 12 -12 2z"/>
<path d="M7830 1412 c0 -4 9 -18 20 -30 11 -11 16 -24 11 -27 -5 -3 -12 -1
-16 5 -3 5 -11 10 -17 10 -6 0 1 -9 16 -21 14 -11 32 -18 39 -16 6 3 3 6 -7 6
-26 1 -12 14 18 17 22 2 23 1 13 -26 -6 -16 -14 -27 -18 -24 -5 2 -13 -5 -19
-17 -7 -12 -8 -19 -2 -15 6 3 13 0 16 -6 3 -7 3 -2 0 11 -4 16 -3 21 5 17 7
-5 15 4 21 21 15 41 13 48 -12 49 -12 1 -32 14 -45 28 -13 15 -23 23 -23 18z"/>
<path d="M7910 1410 c0 -5 5 -10 10 -10 6 0 10 5 10 10 0 6 -4 10 -10 10 -5 0
-10 -4 -10 -10z"/>
<path d="M7210 1400 c0 -5 5 -10 11 -10 5 0 7 5 4 10 -3 6 -8 10 -11 10 -2 0
-4 -4 -4 -10z"/>
<path d="M7320 1405 c0 -2 6 -8 13 -14 10 -8 14 -7 14 2 0 8 -6 14 -14 14 -7
0 -13 -1 -13 -2z"/>
<path d="M7441 1396 c-9 -10 -8 -15 3 -19 11 -4 13 -1 9 10 -5 12 -3 14 7 8 9
-5 11 -4 6 3 -9 15 -11 15 -25 -2z"/>
<path d="M7508 1403 c7 -3 16 -2 19 1 4 3 -2 6 -13 5 -11 0 -14 -3 -6 -6z"/>
<path d="M7677 1384 c-10 -13 -15 -24 -10 -23 20 3 33 -2 31 -13 -2 -8 7 -13
22 -13 19 0 25 6 26 23 1 12 -3 22 -8 22 -5 0 -7 -8 -4 -18 4 -13 0 -18 -14
-19 -11 -1 -18 2 -15 8 4 5 -1 12 -10 15 -14 6 -14 8 1 25 9 11 13 19 8 19 -5
0 -17 -12 -27 -26z"/>
<path d="M7958 1390 c19 -26 14 -35 -8 -15 -11 10 -20 14 -19 9 1 -16 59 -56
74 -51 9 4 13 -1 12 -13 -1 -13 -8 -18 -21 -17 -27 3 -30 -45 -3 -49 9 -1 15
2 11 7 -3 5 -9 7 -14 4 -5 -3 -8 3 -7 14 1 14 8 19 21 18 15 -2 20 4 21 23 0
21 -4 24 -24 22 -14 -2 -21 0 -17 6 3 6 -4 21 -16 34 -13 13 -17 17 -10 8z"/>
<path d="M7890 1390 c0 -5 5 -10 11 -10 5 0 7 5 4 10 -3 6 -8 10 -11 10 -2 0
-4 -4 -4 -10z"/>
<path d="M8075 1389 c-4 -6 -5 -12 -2 -15 2 -3 7 2 10 11 7 17 1 20 -8 4z"/>
<path d="M8155 1391 c-3 -5 -2 -12 3 -15 5 -3 9 1 9 9 0 17 -3 19 -12 6z"/>
<path d="M7399 1373 c-13 -16 -12 -17 4 -4 16 13 21 21 13 21 -2 0 -10 -8 -17
-17z"/>
<path d="M7540 1386 c0 -2 7 -6 15 -10 8 -3 15 -1 15 4 0 6 -7 10 -15 10 -8 0
-15 -2 -15 -4z"/>
<path d="M8117 1377 c4 -6 -1 -8 -11 -4 -9 4 -15 3 -11 -2 3 -5 0 -11 -7 -13
-7 -3 -4 -7 7 -12 11 -4 16 -4 13 0 -4 3 2 14 14 24 17 13 18 17 5 17 -9 0
-13 -5 -10 -10z"/>
<path d="M7476 1367 c3 -10 9 -15 12 -12 3 3 0 11 -7 18 -10 9 -11 8 -5 -6z"/>
<path d="M7995 1370 c3 -5 8 -10 11 -10 2 0 4 5 4 10 0 6 -5 10 -11 10 -5 0
-7 -4 -4 -10z"/>
<path d="M8031 1370 c0 -8 4 -22 9 -30 12 -18 12 -2 0 25 -6 13 -9 15 -9 5z"/>
<path d="M7530 1366 c0 -2 7 -7 16 -10 8 -3 12 -2 9 4 -6 10 -25 14 -25 6z"/>
<path d="M7760 1359 c0 -5 5 -7 10 -4 6 3 10 8 10 11 0 2 -4 4 -10 4 -5 0 -10
-5 -10 -11z"/>
<path d="M7780 1345 c-6 -8 -10 -22 -7 -32 3 -13 5 -12 6 6 1 21 3 22 19 10
15 -12 16 -12 5 2 -7 9 -10 19 -6 22 3 4 4 7 1 7 -3 0 -11 -7 -18 -15z"/>
<path d="M7330 1339 c0 -5 5 -7 10 -4 6 3 10 8 10 11 0 2 -4 4 -10 4 -5 0 -10
-5 -10 -11z"/>
<path d="M7426 1342 c-3 -5 1 -9 9 -9 8 0 12 4 9 9 -3 4 -7 8 -9 8 -2 0 -6 -4
-9 -8z"/>
<path d="M7467 1339 c7 -9 10 -19 6 -22 -3 -4 -1 -7 5 -7 17 0 15 16 -5 31
-16 12 -17 12 -6 -2z"/>
<path d="M7670 1341 c0 -6 4 -13 10 -16 6 -3 7 1 4 9 -7 18 -14 21 -14 7z"/>
<path d="M7822 1336 c10 -7 16 -15 13 -17 -2 -3 5 -5 16 -6 18 -2 18 0 -4 18
-14 10 -29 19 -34 19 -4 0 0 -7 9 -14z"/>
<path d="M7935 1340 c-3 -5 -3 -14 0 -20 8 -13 35 -13 35 0 0 5 -7 7 -15 4
-11 -5 -13 -2 -9 10 7 18 -1 22 -11 6z"/>
<path d="M7578 1328 c5 -5 16 -8 23 -6 8 3 3 7 -10 11 -17 4 -21 3 -13 -5z"/>
<path d="M7621 1324 c0 -11 3 -14 6 -6 3 7 2 16 -1 19 -3 4 -6 -2 -5 -13z"/>
<path d="M8070 1330 c-9 -6 -10 -10 -3 -10 6 0 15 5 18 10 8 12 4 12 -15 0z"/>
<path d="M8100 1320 c-9 -6 -10 -10 -3 -10 6 0 15 5 18 10 8 12 4 12 -15 0z"/>
<path d="M7553 1305 c0 -8 4 -12 9 -9 5 3 6 10 3 15 -9 13 -12 11 -12 -6z"/>
<path d="M7710 1310 c-8 -5 -10 -10 -5 -10 6 0 17 5 25 10 8 5 11 10 5 10 -5
0 -17 -5 -25 -10z"/>
<path d="M7586 1302 c-2 -4 4 -8 14 -8 10 0 16 4 14 8 -3 4 -9 8 -14 8 -5 0
-11 -4 -14 -8z"/>
<path d="M7790 1301 c0 -6 7 -7 17 -4 9 4 14 2 10 -3 -3 -6 -1 -16 4 -24 7
-11 8 -8 6 10 -4 24 -37 43 -37 21z"/>
<path d="M7917 1295 c-8 -20 9 -28 30 -15 16 9 15 10 -4 5 -18 -5 -22 -3 -17
9 3 9 4 16 1 16 -3 0 -7 -7 -10 -15z"/>
<path d="M8156 1298 c3 -5 10 -6 15 -3 13 9 11 12 -6 12 -8 0 -12 -4 -9 -9z"/>
<path d="M8119 1288 c15 -21 31 -23 31 -6 0 6 -3 8 -7 5 -3 -4 -13 -1 -22 6
-14 11 -14 10 -2 -5z"/>
<path d="M7670 1285 c0 -7 30 -13 34 -7 3 4 -4 9 -15 9 -10 1 -19 0 -19 -2z"/>
<path d="M7750 1279 c0 -5 5 -7 10 -4 6 3 10 8 10 11 0 2 -4 4 -10 4 -5 0 -10
-5 -10 -11z"/>
<path d="M8020 1280 c-9 -6 -10 -10 -3 -10 6 0 15 5 18 10 8 12 4 12 -15 0z"/>
<path d="M8050 1280 c0 -5 5 -10 10 -10 6 0 10 5 10 10 0 6 -4 10 -10 10 -5 0
-10 -4 -10 -10z"/>
<path d="M8190 1286 c0 -2 7 -7 16 -10 8 -3 12 -2 9 4 -6 10 -25 14 -25 6z"/>
<path d="M7660 1266 c0 -2 8 -10 18 -17 15 -13 16 -12 3 4 -13 16 -21 21 -21
13z"/>
<path d="M7950 1263 c0 -6 8 -17 18 -24 16 -13 16 -13 2 6 -8 11 -16 22 -17
24 -2 2 -3 0 -3 -6z"/>
<path d="M8095 1259 c-6 -8 -4 -10 5 -4 10 6 12 4 6 -11 -6 -15 -5 -17 5 -6 9
9 10 15 2 23 -8 8 -13 7 -18 -2z"/>
<path d="M8066 1243 c-6 -14 -5 -15 5 -6 7 7 10 15 7 18 -3 3 -9 -2 -12 -12z"/>
<path d="M8213 1245 c0 -8 4 -15 9 -15 4 0 8 4 8 9 0 6 -4 12 -8 15 -5 3 -9
-1 -9 -9z"/>
<path d="M7890 1238 c0 -6 3 -8 7 -5 3 4 15 -1 25 -10 18 -16 18 -16 12 2 -6
14 -4 16 7 10 8 -4 11 -4 7 0 -12 13 -58 15 -58 3z"/>
<path d="M8267 1239 c7 -7 15 -10 18 -7 3 3 -2 9 -12 12 -14 6 -15 5 -6 -5z"/>
<path d="M8310 1240 c0 -5 5 -10 11 -10 5 0 7 5 4 10 -3 6 -8 10 -11 10 -2 0
-4 -4 -4 -10z"/>
<path d="M7998 1233 c7 -3 16 -2 19 1 4 3 -2 6 -13 5 -11 0 -14 -3 -6 -6z"/>
<path d="M7790 1216 c7 -7 13 -7 20 0 6 6 3 10 -10 10 -13 0 -16 -4 -10 -10z"/>
<path d="M8035 1213 c1 -10 -3 -25 -9 -33 -9 -13 -9 -13 6 -2 9 8 23 11 30 7
7 -4 6 -1 -3 7 -9 7 -14 19 -12 26 3 6 0 12 -5 12 -6 0 -9 -8 -7 -17z"/>
<path d="M7955 1209 c-4 -6 -5 -12 -2 -15 2 -3 7 2 10 11 7 17 1 20 -8 4z"/>
<path d="M8126 1203 c-6 -14 -5 -15 5 -6 7 7 10 15 7 18 -3 3 -9 -2 -12 -12z"/>
<path d="M7646 1202 c-3 -5 1 -9 9 -9 8 0 12 4 9 9 -3 4 -7 8 -9 8 -2 0 -6 -4
-9 -8z"/>
<path d="M8216 1198 c3 -5 10 -6 15 -3 13 9 11 12 -6 12 -8 0 -12 -4 -9 -9z"/>
<path d="M7696 1182 c-2 -4 -1 -14 4 -22 7 -11 9 -9 7 8 -1 24 -3 26 -11 14z"/>
<path d="M8145 1180 c-3 -6 1 -7 9 -4 18 7 21 14 7 14 -6 0 -13 -4 -16 -10z"/>
<path d="M8180 1185 c0 -2 6 -8 13 -14 10 -8 14 -7 14 2 0 8 -6 14 -14 14 -7
0 -13 -1 -13 -2z"/>
<path d="M7875 1160 c3 -5 8 -10 11 -10 2 0 4 5 4 10 0 6 -5 10 -11 10 -5 0
-7 -4 -4 -10z"/>
<path d="M8040 1165 c0 -2 6 -8 13 -14 10 -8 14 -7 14 2 0 8 -6 14 -14 14 -7
0 -13 -1 -13 -2z"/>
<path d="M8156 1162 c-3 -5 1 -9 9 -9 8 0 12 4 9 9 -3 4 -7 8 -9 8 -2 0 -6 -4
-9 -8z"/>
<path d="M7990 1138 c0 -4 4 -8 9 -8 6 0 12 4 15 8 3 5 -1 9 -9 9 -8 0 -15 -4
-15 -9z"/>
<path d="M7830 1136 c0 -2 8 -10 18 -17 15 -13 16 -12 3 4 -13 16 -21 21 -21
13z"/>
<path d="M7636 1113 c-6 -14 -5 -15 5 -6 7 7 10 15 7 18 -3 3 -9 -2 -12 -12z"/>
<path d="M8044 1122 c4 -3 14 -7 22 -8 9 -1 13 0 10 4 -4 3 -14 7 -22 8 -9 1
-13 0 -10 -4z"/>
<path d="M8254 1062 c4 -3 14 -7 22 -8 9 -1 13 0 10 4 -4 3 -14 7 -22 8 -9 1
-13 0 -10 -4z"/>
<path d="M8115 1000 c-3 -5 -1 -10 4 -10 6 0 11 5 11 10 0 6 -2 10 -4 10 -3 0
-8 -4 -11 -10z"/>
</g>
</svg>
